<svg xmlns="http://www.w3.org/2000/svg" width="1061" height="701" viewBox="0 0 1061 701" version="1.1"><path d="M 823.500 272.629 C 821.850 273.506, 818.475 276.144, 816 278.491 C 811.763 282.508, 811.082 282.790, 804.339 283.313 C 795.288 284.015, 790.612 286.383, 784.864 293.176 C 778.070 301.204, 777.922 300.841, 787.760 300.270 L 796.500 299.762 792 304.459 C 789.525 307.043, 783.482 311.855, 778.571 315.154 C 762.315 326.074, 751.971 330.080, 749.067 326.581 C 747.926 325.206, 748.152 324.289, 750.617 320.301 C 753.218 316.094, 756.882 312.651, 769.888 302.194 C 773.295 299.454, 774 298.285, 774 295.378 C 774 291.059, 772.465 288, 770.298 288 C 767.577 288, 756.776 294.416, 739.708 306.171 C 722.258 318.189, 712.307 323.751, 706.598 324.678 C 703.218 325.226, 703 325.099, 703 322.585 C 703 319.361, 705.888 316.302, 712.538 312.483 C 715.267 310.915, 720.200 307.510, 723.500 304.915 C 736.930 294.355, 737.202 292, 724.992 292 C 718.994 292, 715.949 292.495, 713.141 293.928 C 706.865 297.130, 699.341 303.637, 695.309 309.351 C 689.364 317.776, 674.767 326.390, 663.450 328.152 C 659.891 328.706, 656.464 328.988, 655.835 328.778 C 655.205 328.568, 657.572 326.333, 661.095 323.812 C 682.583 308.429, 689.226 295.198, 677.286 291.562 C 673.944 290.544, 662.764 293.681, 650.767 299.002 C 640.542 303.537, 640.123 303.637, 641.933 301.131 C 644.462 297.628, 649.956 292.530, 658.658 285.614 C 667.736 278.397, 668.863 276.170, 664.453 274.161 C 660.940 272.560, 655.466 272.708, 652.007 274.497 C 650.415 275.320, 637.725 285.257, 623.806 296.580 C 598.733 316.978, 589.795 322.885, 579.207 326.056 C 575.498 327.167, 574.702 327.130, 573.354 325.783 C 570.802 323.230, 572.505 320.609, 583.061 310.844 C 589.044 305.311, 593 300.882, 593 299.720 C 593 297.095, 587.244 290, 585.115 290 C 584.170 290, 579.370 292.387, 574.449 295.304 C 569.527 298.221, 559.281 304.297, 551.680 308.805 L 537.860 317.002 544.408 309.495 C 551.933 300.866, 554.361 296.711, 553.486 293.956 C 550.111 283.322, 533.802 289.467, 501.242 313.641 C 495.050 318.239, 489.538 322, 488.992 322 C 485.770 322, 490.087 317.043, 502.358 306.650 C 505.508 303.982, 508.828 300.665, 509.737 299.279 C 511.292 296.905, 511.278 296.677, 509.503 295.379 C 506.088 292.881, 497.144 293.649, 491.421 296.932 C 486.647 299.670, 476 310.106, 476 312.047 C 476 313.533, 461.680 320.973, 458.791 320.987 L 456.083 321 459.030 316.250 C 460.651 313.637, 462.264 309.398, 462.614 306.830 C 463.186 302.628, 462.971 301.880, 460.472 299.381 C 458.843 297.752, 458.170 296.443, 458.847 296.218 C 459.481 296.006, 460 294.723, 460 293.366 C 460 291.460, 459.147 290.542, 456.253 289.332 C 449.517 286.518, 434.302 289.345, 420.491 295.978 C 405.418 303.216, 398.341 312.041, 399.210 322.517 C 400.039 332.511, 406.845 340.127, 416.322 341.665 C 421.917 342.573, 433.996 339.377, 441.133 335.101 C 446.061 332.148, 448.899 331.163, 453.691 330.743 C 457.137 330.441, 462.346 329.073, 465.437 327.658 L 470.991 325.115 471.588 327.807 C 472.771 333.135, 473.174 334.053, 475.596 336.932 C 478.405 340.270, 482.547 341.526, 486.076 340.110 C 487.409 339.575, 491.650 336.357, 495.500 332.960 C 512.014 318.386, 525.470 308.137, 526.603 309.270 C 526.841 309.508, 524.480 312.807, 521.357 316.601 C 513.874 325.692, 510 331.865, 510 334.696 C 510 340.406, 518.343 342.942, 525.300 339.346 C 527.060 338.436, 535.770 332.586, 544.654 326.346 C 553.539 320.106, 561.107 315, 561.471 315 C 561.836 315, 560.583 316.913, 558.688 319.250 C 551.272 328.394, 549.248 335.743, 553.028 339.799 C 557.366 344.456, 563.364 343.981, 575.945 337.985 C 586.966 332.731, 606 321.892, 606 320.869 C 606 320.434, 609.487 317.523, 613.750 314.398 C 618.013 311.274, 622.163 308.219, 622.974 307.609 C 625.549 305.671, 606.793 328.716, 596.399 340.261 C 589.328 348.114, 585.359 354.902, 584.426 360.736 C 583.855 364.308, 584.110 365.201, 586.338 367.429 C 587.752 368.843, 589.267 369.998, 589.705 369.996 C 592.889 369.981, 597.913 364.583, 606.032 352.452 L 615.157 338.818 624.829 339.386 C 630.148 339.698, 638.370 340.233, 643.099 340.573 C 649.424 341.029, 653.392 340.766, 658.099 339.580 C 664.475 337.974, 679.569 331.090, 685.750 326.970 L 689 324.804 689 327.451 C 689 334.243, 695.314 339.990, 702.783 339.996 C 707.938 340.001, 714.348 336.928, 723.271 330.174 C 732.269 323.363, 732.409 323.297, 730.723 326.640 C 728.166 331.710, 727.849 334.879, 729.541 338.446 C 734.067 347.983, 747.847 345.291, 769.182 330.702 L 778.864 324.081 777.432 327.508 C 776.644 329.393, 776 332.897, 776 335.294 C 776 341.130, 779.093 344.110, 785.822 344.757 C 794.518 345.593, 805.151 341.523, 820.784 331.377 C 825.341 328.420, 829.503 326, 830.034 326 C 830.565 326, 831 326.922, 831 328.050 C 831 330.769, 833.256 334.983, 836.169 337.702 C 848.622 349.330, 875.854 341.316, 902.625 318.144 C 910.025 311.739, 911.265 311.046, 917.109 310.047 C 920.624 309.446, 924.619 308.704, 925.987 308.399 C 927.977 307.954, 927.207 309.079, 922.134 314.028 C 911.575 324.327, 909.593 332.362, 916.078 338.575 C 918.733 341.118, 919.885 341.500, 924.908 341.500 C 931.960 341.500, 940.801 337.314, 954.500 327.487 C 961.877 322.196, 963.439 320.623, 963.164 318.766 C 962.614 315.066, 961.635 314.884, 957.473 317.712 C 949.658 323.023, 940.912 327, 937.050 327 C 927.133 327, 930.937 318.550, 945.221 308.850 C 953.782 303.036, 954.985 299.512, 950.304 293.949 L 947.608 290.745 939.554 291.405 C 935.124 291.768, 929.138 292.337, 926.250 292.670 C 921.453 293.223, 921 293.101, 921 291.260 C 921 285.613, 915.279 286.295, 904.985 293.169 C 895.783 299.314, 891.448 308.099, 896.033 311.311 C 898.019 312.702, 897.979 312.811, 894.303 316.038 C 888.062 321.518, 870.897 329.158, 863.490 329.753 C 855.567 330.389, 852.454 329.622, 850.433 326.538 C 847.928 322.715, 849.750 320.992, 859.121 318.316 C 881.973 311.792, 897.436 299.893, 892.618 292.540 C 890.331 289.049, 884.878 287.628, 876.583 288.361 C 864.449 289.433, 853.630 293.762, 843.797 301.480 C 839.333 304.983, 833.201 312.384, 831.803 315.957 C 831.636 316.382, 825.764 319.716, 818.754 323.365 C 808.574 328.664, 805.105 330, 801.523 330 C 797.599 330, 796.961 329.694, 796.424 327.553 C 795.193 322.647, 799.673 314.253, 808.330 305.250 C 811.948 301.487, 812.937 300.997, 816.958 300.976 C 827.548 300.921, 832.279 298.479, 838.250 289.990 C 842.618 283.780, 842.784 283.005, 839.750 282.986 C 838.513 282.979, 836.502 282.705, 835.282 282.378 L 833.063 281.783 835.614 278.439 C 839.506 273.337, 838.602 271.548, 831.990 271.266 C 828.481 271.117, 825.418 271.608, 823.500 272.629 M 868.257 299.119 C 863.278 301.033, 852 310.085, 852 312.168 C 852 314.412, 867.240 307.198, 873.107 302.177 C 879.537 296.673, 877.675 295.499, 868.257 299.119 M 430.397 308.405 C 421.351 312.651, 415.383 317.988, 413.810 323.241 C 412.690 326.977, 412.769 327.394, 414.913 329.131 C 418.024 331.650, 423.585 331.500, 429.038 328.750 C 432.408 327.050, 433.419 326.011, 433.169 324.500 C 432.185 318.541, 432.888 314.699, 435.831 309.964 C 437.529 307.234, 438.598 305.016, 438.209 305.036 C 437.819 305.056, 434.304 306.572, 430.397 308.405 M 647.366 310.957 C 643.040 313.133, 637.044 317.071, 634.043 319.707 L 628.586 324.500 635.543 325.070 C 643.431 325.716, 643.843 325.511, 654.250 315.765 C 664.181 306.465, 660.879 304.159, 647.366 310.957 M 774.500 401.935 C 761.626 405.069, 757.468 415.840, 768.108 418.495 C 770.956 419.205, 777.188 417.025, 780.351 414.212 C 782.829 412.008, 785.144 406.540, 784.410 404.626 C 783.980 403.504, 778.187 400.507, 777.601 401.102 C 777.545 401.159, 776.150 401.533, 774.500 401.935 M 705.377 416.926 C 690.620 420.902, 672.863 429.975, 667.189 436.437 C 656.939 448.112, 663.033 466.795, 678.112 469.921 C 688.139 472, 701.890 467.877, 718.135 457.921 L 725.769 453.241 726.305 457.239 C 727.020 462.565, 731.611 468.121, 736.819 469.961 C 744.419 472.647, 757.404 468.278, 770.734 458.550 C 774.163 456.047, 777.201 454, 777.484 454 C 777.768 454, 778 454.922, 778 456.050 C 778 461.214, 783.995 467.853, 790.638 470.045 C 800.581 473.327, 821.223 467.152, 836.250 456.402 C 838.907 454.501, 841.002 453.553, 841.006 454.252 C 841.020 457.512, 843.403 463.494, 845.537 465.628 C 850.488 470.579, 856.517 468.324, 868.677 456.972 C 874.366 451.661, 883.122 445.014, 890.500 440.407 C 892.861 438.932, 892.371 439.783, 888.203 444.399 C 878.693 454.930, 876.382 463.194, 881.583 468.076 C 883.714 470.076, 885.179 470.494, 889.950 470.467 C 896.972 470.427, 904.120 467.065, 917.429 457.538 L 926.357 451.148 928.105 456.310 C 932.509 469.320, 945.326 473.585, 962.900 467.889 C 968.099 466.204, 980.667 459.778, 986.638 455.751 L 991.775 452.287 992.297 456.181 C 992.919 460.815, 996.868 466.327, 1001.302 468.750 C 1006.051 471.344, 1019.536 471.026, 1028 468.119 C 1039.766 464.079, 1061.017 450.556, 1060.985 447.130 C 1060.976 446.233, 1060.549 444.836, 1060.036 444.024 C 1059.236 442.760, 1058.558 442.872, 1055.301 444.807 C 1036.035 456.256, 1021.428 460.464, 1014 456.706 C 1012.085 455.737, 1011.500 454.660, 1011.500 452.102 L 1011.500 448.763 1020.663 446.048 C 1038.111 440.878, 1051.591 432.836, 1054.167 426.062 C 1056.430 420.108, 1052.815 416.925, 1043.024 416.252 C 1026.616 415.123, 1004.518 425.592, 996.391 438.344 C 993.948 442.177, 991.872 443.724, 983 448.322 C 969.657 455.236, 963.134 457.352, 955 457.402 C 944.639 457.466, 938.782 452.994, 942.295 447.701 C 943.098 446.490, 947.958 443.109, 953.094 440.187 L 962.433 434.874 964.300 437.437 C 966.897 441.003, 971.404 440.830, 977.279 436.939 C 985.956 431.191, 989.967 424.989, 988.580 419.465 C 987.202 413.974, 978.321 413.843, 963.332 419.091 C 949.179 424.046, 939.323 429.683, 931.861 437.090 C 923.793 445.099, 910.709 453.053, 904.441 453.760 C 900.677 454.184, 900 453.991, 900 452.498 C 900 449.118, 904.008 444.301, 912.507 437.465 C 917.291 433.618, 921.323 429.562, 921.647 428.271 C 922.207 426.041, 920.678 420.827, 918.710 418.250 C 917.039 416.062, 913.774 416.886, 902.500 422.341 C 889.173 428.789, 875.892 436.959, 866.560 444.449 C 861.621 448.412, 859.313 449.708, 858.560 448.940 C 857.404 447.763, 857.421 447.746, 870.284 437.263 C 874.493 433.833, 878.713 429.841, 879.663 428.392 C 881.311 425.877, 881.304 425.695, 879.503 424.379 C 878.354 423.539, 875.055 423, 871.059 423.001 C 864.804 423.001, 864.235 423.209, 858.781 427.491 C 855.635 429.960, 851.202 434.348, 848.929 437.240 C 845.910 441.082, 842.329 443.922, 835.648 447.772 C 822.181 455.532, 816.909 457.352, 807.664 457.432 C 800.546 457.494, 799.648 457.279, 797.872 455.087 C 795.691 452.398, 795.739 450.110, 798 448.935 C 798.825 448.507, 803.987 446.727, 809.471 444.981 C 821.321 441.208, 829.554 437.209, 834.606 432.773 C 848.371 420.687, 836.283 412.173, 813.596 417.975 C 799.597 421.556, 785.994 430.881, 780.979 440.334 C 777.135 447.579, 760.953 456, 750.874 456 C 747.333 456, 745.453 455.453, 744 454 C 740.664 450.664, 741.591 448.789, 748.701 444.500 C 757.761 439.033, 768 429.034, 768 425.654 C 768 420.084, 758.731 419.295, 749.208 424.054 C 742.349 427.481, 734.140 434.420, 731.073 439.382 C 729.573 441.809, 726.203 444.135, 718.269 448.220 C 704.609 455.251, 698.143 457.352, 690 457.402 C 679.639 457.466, 673.800 453.007, 677.283 447.690 C 678.080 446.474, 682.955 443.124, 688.116 440.246 L 697.500 435.014 699.333 437.507 C 702.640 442.003, 709.182 440.444, 717.124 433.269 C 723.627 427.394, 726.079 419.971, 722.499 417 C 720.003 414.928, 712.906 414.897, 705.377 416.926 M 814.263 427.458 C 809.329 429.755, 799 438.306, 799 440.092 C 799 441.081, 805.060 439.020, 811.097 435.978 C 816.141 433.436, 824 427.318, 824 425.933 C 824 424.274, 819.631 424.959, 814.263 427.458 M 1028.360 427.413 C 1023.124 429.851, 1015.657 435.903, 1013.950 439.093 C 1013.117 440.651, 1013.329 440.766, 1015.753 440.071 C 1023.382 437.881, 1038 428.568, 1038 425.896 C 1038 424.282, 1033.598 424.974, 1028.360 427.413" stroke="none" fill="#ffffff" fill-rule="evenodd"/><path d="M 516.092 1.144 C 500.362 2.788, 474.196 13.097, 431 34.669 C 375.870 62.201, 322.520 94.288, 284.500 122.780 C 238.500 157.253, 158.533 232.311, 116.466 280.500 C 79.474 322.875, 50.295 365.951, 33.204 403.418 C 21.430 429.228, 8.195 473.147, 2.893 504 C -0.220 522.117, -0.536 559.408, 2.305 573.374 C 10.930 615.765, 35.495 648.455, 79.040 675.493 C 92.178 683.650, 112.287 693.503, 119.738 695.433 C 169.699 708.374, 275.907 680.392, 419.500 616.456 C 502.150 579.655, 602.241 526.840, 615.438 513.065 C 618.008 510.382, 618.128 509.986, 616.552 509.382 C 612.839 507.957, 585.861 518.707, 536.500 541.282 C 483.540 565.502, 390.639 592.210, 320.500 603.379 C 264.894 612.233, 217.148 612.783, 183.500 604.955 C 162.157 599.990, 145.005 591.633, 132.880 580.291 C 126.664 574.476, 118.872 562.940, 116.004 555.304 C 113.191 547.814, 110.998 536.341, 111.008 529.162 C 111.021 520.268, 113.792 501.408, 116.613 491.022 C 129.312 444.261, 173.603 368.742, 235.389 288.500 C 303.722 199.756, 378.823 131.815, 456.709 88.282 C 506.429 60.492, 548.173 51.123, 557.672 65.623 C 561.684 71.746, 558.701 86.326, 550.229 102 C 546.193 109.468, 533.137 129.134, 523.012 143 C 495.747 180.334, 496.372 201.546, 525 210.500 C 532.286 212.778, 559.871 213.660, 575.190 212.104 C 596.396 209.949, 631.320 203.195, 655 196.669 L 663.500 194.326 656.339 194.310 C 650.358 194.297, 648.408 193.843, 644.511 191.559 C 636.656 186.956, 631.160 176.188, 628.949 161.065 C 627.279 149.644, 628.296 121.187, 631.006 103.500 C 633.936 84.377, 633.983 65.579, 631.132 53.715 C 624.019 24.118, 603.733 7.182, 568.558 1.477 C 558.543 -0.147, 530.173 -0.327, 516.092 1.144" stroke="none" fill="#003a82" fill-rule="evenodd"/><path d="M 496.495 111.215 C 467.668 127.771, 448.748 139.466, 420 158.501 C 339.478 211.815, 282.416 261.058, 247.341 307.500 C 213.890 351.792, 204.689 392.449, 220.543 425.911 C 225.643 436.675, 231.400 444.209, 243.154 455.500 C 274.433 485.550, 314.422 506.987, 355.149 515.537 C 371.854 519.044, 399.664 519.994, 414.500 517.564 C 450.345 511.692, 473.140 495.417, 473.415 475.500 C 473.534 466.844, 469.893 459.965, 460.593 451.280 C 450.767 442.104, 436.997 435.085, 411.061 426.032 C 399.819 422.108, 384.294 416.396, 376.561 413.340 C 362.141 407.640, 335.464 394.578, 331 391.031 L 328.500 389.044 342.050 389.022 C 377.683 388.964, 423.380 395.351, 456.390 405.004 C 489.817 414.778, 509.995 426.096, 515.958 438.413 C 518.519 443.703, 518.678 453.250, 516.306 459.230 C 508.963 477.736, 491.978 495.998, 428.332 553.821 C 407.339 572.893, 390.296 588.630, 390.459 588.792 C 391.012 589.345, 418.437 582.116, 440.500 575.601 C 481.976 563.354, 511.521 552.696, 540.500 539.525 C 555.350 532.776, 571.550 525.510, 576.500 523.377 L 585.500 519.500 588.741 513 C 593.802 502.852, 598.714 486.532, 600.029 475.500 C 602.718 452.943, 594.805 433.120, 577.316 418.604 C 554.243 399.452, 517.308 388.326, 458.500 382.813 C 439.703 381.050, 364.989 381.281, 340 383.178 L 321.500 384.582 316.384 379.384 C 309.079 371.961, 306.491 366.207, 306.539 357.500 C 306.587 348.784, 308.535 344.417, 323.494 319.500 C 346.538 281.116, 364.690 256.934, 401.937 215 C 426.461 187.390, 483.121 131.119, 512.432 105.264 C 515.695 102.386, 518.168 99.835, 517.928 99.594 C 517.687 99.354, 508.043 104.584, 496.495 111.215 M 562 546.196 C 544.535 556.053, 492.004 582.766, 464.171 595.944 C 422.932 615.469, 381.556 633.432, 345 647.681 C 334.791 651.661, 327.840 654.949, 326.768 656.306 C 325.816 657.513, 323.625 661.860, 321.899 665.967 C 316.271 679.362, 317.937 689.992, 326.595 695.924 C 337.918 703.683, 364.563 702.506, 393 692.989 C 455.861 671.952, 520.682 620.914, 561.903 560 C 569.342 549.008, 575.579 538.920, 574.845 539.071 C 574.655 539.109, 568.875 542.316, 562 546.196" stroke="none" fill="#b3d076" fill-rule="evenodd"/></svg>