<?xml version="1.0" standalone="no"?>
<!DOCTYPE svg PUBLIC "-//W3C//DTD SVG 20010904//EN"
 "http://www.w3.org/TR/2001/REC-SVG-20010904/DTD/svg10.dtd">
<svg version="1.0" xmlns="http://www.w3.org/2000/svg"
 width="1113.000000pt" height="100.000000pt" viewBox="0 0 1113.000000 100.000000"
 preserveAspectRatio="xMidYMid meet">

<g transform="translate(0.000000,100.000000) scale(0.100000,-0.100000)"
fill="#000000" stroke="none">
<path d="M949 976 c-157 -64 -285 -152 -430 -296 -172 -169 -243 -301 -243
-450 -1 -160 139 -254 309 -209 175 46 376 129 493 202 34 21 62 40 62 42 0 6
-52 -11 -115 -37 -152 -64 -291 -97 -403 -98 -193 0 -238 77 -147 256 124 248
408 518 552 527 53 3 53 -20 2 -105 -56 -92 -50 -103 52 -103 86 1 118 10 101
27 -8 8 -12 48 -12 106 0 107 -8 128 -55 148 -49 20 -101 17 -166 -10z"/>
</g>
</svg>
