<?xml version="1.0" standalone="no"?>
<!DOCTYPE svg PUBLIC "-//W3C//DTD SVG 20010904//EN"
 "http://www.w3.org/TR/2001/REC-SVG-20010904/DTD/svg10.dtd">
<svg version="1.0" xmlns="http://www.w3.org/2000/svg"
 width="1338.000000pt" height="1348.000000pt" viewBox="0 0 1338.000000 1348.000000"
 preserveAspectRatio="xMidYMid meet">

<g transform="translate(0.000000,1348.000000) scale(0.100000,-0.100000)"
fill="#000000" stroke="none">
<path d="M6638 11963 c6 -2 18 -2 25 0 6 3 1 5 -13 5 -14 0 -19 -2 -12 -5z"/>
<path d="M6538 11933 c7 -3 16 -2 19 1 4 3 -2 6 -13 5 -11 0 -14 -3 -6 -6z"/>
<path d="M6723 11923 c9 -2 23 -2 30 0 6 3 -1 5 -18 5 -16 0 -22 -2 -12 -5z"/>
<path d="M6368 11853 c7 -3 16 -2 19 1 4 3 -2 6 -13 5 -11 0 -14 -3 -6 -6z"/>
<path d="M6537 11849 c7 -7 15 -10 18 -7 3 3 -2 9 -12 12 -14 6 -15 5 -6 -5z"/>
<path d="M6338 11793 c6 -2 18 -2 25 0 6 3 1 5 -13 5 -14 0 -19 -2 -12 -5z"/>
<path d="M6492 11778 c-6 -6 -31 -15 -54 -19 l-43 -6 36 -2 c23 -1 45 6 60 19
13 10 22 19 19 20 -4 0 -11 -5 -18 -12z"/>
<path d="M6285 11660 c-3 -6 1 -7 9 -4 18 7 21 14 7 14 -6 0 -13 -4 -16 -10z"/>
<path d="M6010 11646 c0 -3 9 -10 20 -16 11 -6 20 -8 20 -6 0 3 -9 10 -20 16
-11 6 -20 8 -20 6z"/>
<path d="M6240 11635 c-14 -8 -20 -14 -14 -15 5 0 19 7 30 15 24 18 16 19 -16
0z"/>
<path d="M6080 11606 c0 -3 9 -10 20 -16 11 -6 20 -8 20 -6 0 3 -9 10 -20 16
-11 6 -20 8 -20 6z"/>
<path d="M5903 11592 c-7 -5 4 -8 26 -7 22 0 37 3 34 8 -6 9 -45 9 -60 -1z"/>
<path d="M6150 11585 c-14 -8 -20 -14 -14 -15 5 0 19 7 30 15 24 18 16 19 -16
0z"/>
<path d="M5970 11540 c-9 -6 -10 -10 -3 -10 6 0 15 5 18 10 8 12 4 12 -15 0z"/>
<path d="M5890 11530 c8 -5 26 -10 39 -10 32 0 24 6 -19 14 -25 4 -31 3 -20
-4z"/>
<path d="M6037 11514 c-3 -4 -21 -10 -39 -14 -29 -7 -30 -8 -7 -9 14 -1 34 6
45 14 10 8 16 15 13 15 -3 0 -8 -3 -12 -6z"/>
<path d="M5746 11502 c-2 -4 13 -6 35 -4 21 2 39 6 39 8 0 7 -69 4 -74 -4z"/>
<path d="M5715 11460 c3 -4 14 -10 25 -13 11 -3 18 -2 15 3 -3 4 -14 10 -25
13 -11 3 -18 2 -15 -3z"/>
<path d="M5880 11424 c-14 -8 -38 -12 -55 -9 -24 4 -27 3 -12 -6 21 -13 71 -3
88 17 14 17 12 16 -21 -2z"/>
<path d="M5534 11376 c-12 -9 -7 -11 25 -8 23 2 43 7 45 11 7 11 -54 9 -70 -3z"/>
<path d="M5489 11338 c8 -11 25 -17 45 -17 l31 2 -30 4 c-16 3 -37 10 -45 16
-13 10 -13 10 -1 -5z"/>
<path d="M5668 11300 c-21 -13 -56 -15 -88 -6 l-25 7 26 -15 c20 -12 34 -13
62 -5 20 5 39 14 42 19 8 12 5 12 -17 0z"/>
<path d="M5369 11283 c-13 -16 -12 -17 3 -4 10 7 29 11 43 9 13 -3 22 -1 19 3
-9 15 -51 10 -65 -8z"/>
<path d="M5343 11238 c11 -10 29 -18 41 -17 17 0 15 3 -9 11 -16 6 -35 13 -40
17 -6 3 -2 -2 8 -11z"/>
<path d="M5452 11251 c-9 -5 -4 -8 16 -7 17 1 28 4 25 9 -6 9 -25 9 -41 -2z"/>
<path d="M5493 11204 c-24 -10 -39 -11 -59 -4 -15 6 -29 8 -32 6 -3 -3 8 -10
24 -16 31 -12 97 1 109 20 8 13 -3 11 -42 -6z"/>
<path d="M5225 11200 c-8 -13 5 -13 25 0 13 8 13 10 -2 10 -9 0 -20 -4 -23
-10z"/>
<path d="M5181 11162 c33 -56 145 -81 190 -42 l24 20 -30 -15 c-55 -27 -113
-15 -169 34 -28 25 -28 25 -15 3z"/>
<path d="M5283 11173 c-7 -2 -13 -9 -13 -14 0 -6 8 -5 20 1 15 8 26 7 43 -1
20 -11 21 -11 8 4 -13 17 -34 20 -58 10z"/>
<path d="M5060 11105 c-14 -8 -34 -15 -45 -15 -16 0 -17 -2 -6 -9 15 -10 64 9
76 29 8 13 5 12 -25 -5z"/>
<path d="M5109 11030 c13 -11 36 -20 51 -20 15 0 38 9 51 20 l24 20 -37 -17
c-36 -16 -40 -16 -75 0 l-38 17 24 -20z"/>
<path d="M4214 10983 c-6 -7 -14 -10 -17 -7 -2 3 -113 -57 -245 -134 l-240
-138 426 -246 c235 -135 443 -255 462 -266 19 -11 107 -62 195 -113 88 -51
255 -147 371 -214 l211 -122 6 91 c3 59 14 116 29 162 47 135 163 284 300 386
62 46 76 68 45 68 -8 0 -8 -3 2 -9 8 -5 9 -11 3 -15 -6 -3 -20 6 -32 21 -20
27 -21 27 -14 4 4 -16 3 -21 -5 -17 -6 4 -11 14 -11 23 0 9 -3 13 -7 10 -3 -4
-14 0 -23 8 -15 14 -19 14 -29 1 -11 -13 -9 -15 8 -11 13 2 21 -1 21 -10 0 -8
8 -18 17 -24 10 -5 15 -13 11 -16 -4 -4 -15 3 -25 14 -19 23 -49 30 -37 9 4
-7 -3 -4 -16 7 -15 13 -21 15 -16 5 7 -13 6 -13 -6 0 -7 8 -18 16 -23 17 -6 1
-18 5 -27 8 -15 6 -18 2 -18 -24 0 -17 -4 -31 -10 -31 -10 0 -14 14 -11 35 1
6 -5 2 -13 -9 -16 -20 -54 -27 -72 -14 -6 4 -11 2 -11 -7 0 -8 4 -12 8 -9 4 2
11 -1 15 -8 4 -7 4 -10 -1 -6 -4 4 -17 2 -28 -4 -16 -8 -19 -8 -14 5 4 10 0
14 -11 12 -9 -1 -16 -8 -14 -16 3 -10 0 -10 -12 0 -8 7 -12 19 -9 28 4 9 8 11
12 4 4 -5 12 -6 20 -2 9 6 8 10 -7 13 -11 3 -26 2 -33 -3 -26 -16 -37 -9 -35
20 1 17 -2 27 -6 24 -5 -2 -7 -18 -4 -34 3 -20 1 -29 -7 -26 -13 4 -14 27 -2
70 4 17 3 27 -4 27 -6 0 -8 -8 -5 -17 5 -16 4 -16 -10 1 -8 10 -13 23 -9 29 3
6 1 7 -5 3 -8 -5 -9 -13 -2 -26 7 -14 6 -20 -7 -24 -9 -4 -13 -9 -10 -13 4 -3
13 0 22 7 8 7 15 8 15 2 0 -19 -34 -24 -47 -6 -7 10 -13 14 -13 8 0 -5 -7 -1
-15 10 -7 10 -19 15 -25 11 -6 -3 -9 -1 -8 5 2 7 -8 14 -21 16 -14 3 -30 9
-36 14 -8 7 -12 5 -12 -5 0 -7 3 -14 6 -13 23 2 38 -4 38 -17 0 -13 -2 -13
-17 0 -13 12 -19 12 -30 2 -8 -7 -10 -7 -7 -1 9 16 -39 24 -53 10 -8 -8 -9 -7
-5 6 5 11 1 16 -12 15 -17 -2 -19 2 -22 45 l-1 21 -19 -21 c-25 -30 -43 -27
-71 10 -20 27 -21 34 -10 52 11 19 10 19 -13 -3 -26 -24 -47 -22 -47 5 0 8 -4
13 -9 9 -5 -3 -12 -1 -16 5 -3 5 1 10 9 10 9 0 16 5 16 11 0 20 -20 48 -33 45
-6 -1 -9 -1 -4 1 4 3 5 8 2 13 -3 4 3 7 13 6 9 0 19 -10 22 -21 7 -24 77 -36
77 -13 0 8 -11 14 -26 13 -16 0 -26 5 -26 15 0 8 -17 19 -40 26 -22 7 -32 13
-22 13 9 1 17 5 17 11 0 5 -7 6 -17 3 -12 -5 -14 -3 -9 8 5 9 3 8 -6 -2 -19
-23 -53 -39 -83 -39 -34 0 -79 44 -72 71 6 23 4 23 -35 3 -21 -11 -33 -13 -41
-5 -7 7 -5 12 6 17 9 3 14 10 11 15 -3 5 2 6 10 3 9 -3 16 -1 16 4 0 6 8 13
18 15 14 4 14 5 -3 6 -18 2 -18 3 5 17 22 12 22 14 5 13 -54 -4 -86 1 -79 13
5 7 3 8 -7 3 -20 -13 -49 -13 -41 -1 11 18 11 37 0 30 -5 -3 -7 -8 -4 -11 7
-7 -20 -33 -33 -33 -6 0 -11 8 -12 18 0 14 -2 14 -7 2 -7 -16 -54 -28 -51 -13
4 22 -3 30 -26 28 -14 -2 -37 0 -53 5 -15 5 -21 9 -14 9 7 1 10 6 6 12 -5 8 3
10 24 7 17 -2 29 -1 26 4 -8 13 -116 5 -130 -9z m352 -208 c15 -14 32 -25 38
-25 19 0 35 -21 29 -37 -7 -19 -56 -43 -88 -43 -14 0 -34 9 -45 20 -11 11 -27
20 -36 20 -54 0 -72 50 -26 74 43 24 97 20 128 -9z m329 -185 c3 -5 2 -10 -4
-10 -5 0 -13 5 -16 10 -3 6 -2 10 4 10 5 0 13 -4 16 -10z m-31 -40 c-6 -5 -24
21 -24 34 0 6 6 1 14 -10 8 -10 12 -21 10 -24z m-34 20 c0 -5 -5 -10 -11 -10
-5 0 -7 5 -4 10 3 6 8 10 11 10 2 0 4 -4 4 -10z m78 -20 c7 -11 11 -20 9 -20
-2 0 -12 9 -22 20 -10 11 -14 20 -9 20 5 0 15 -9 22 -20z m72 -4 c0 -8 -7 -16
-15 -20 -16 -6 -16 14 0 26 14 10 15 10 15 -6z m81 -73 c12 -16 12 -17 -2 -6
-9 7 -19 10 -22 6 -4 -3 -7 -1 -7 5 0 17 16 15 31 -5z m509 -45 c0 -4 -8 -8
-17 -8 -15 0 -16 2 -3 10 8 5 10 10 4 10 -6 0 -11 7 -11 16 0 14 2 14 14 -2 7
-10 13 -21 13 -26z m-247 -23 c-3 -9 -8 -14 -10 -11 -3 3 -2 9 2 15 9 16 15
13 8 -4z m146 -25 c0 -10 -3 -8 -9 5 -12 27 -12 43 0 25 5 -8 9 -22 9 -30z"/>
<path d="M4472 10769 c-27 -10 -28 -26 -2 -34 20 -6 60 10 60 24 0 13 -33 19
-58 10z"/>
<path d="M4530 10720 c-12 -8 -12 -10 2 -15 23 -9 50 -3 56 13 4 14 -36 16
-58 2z"/>
<path d="M4868 10982 c12 -9 47 -30 77 -46 48 -25 59 -27 82 -17 14 6 23 14
20 17 -3 3 -14 1 -26 -5 -21 -12 -31 -7 -121 47 -42 26 -64 29 -32 4z"/>
<path d="M4453 10955 c0 -8 4 -12 9 -9 5 3 6 10 3 15 -9 13 -12 11 -12 -6z"/>
<path d="M4390 10951 c0 -5 5 -13 10 -16 6 -3 10 -2 10 4 0 5 -4 13 -10 16 -5
3 -10 2 -10 -4z"/>
<path d="M4764 10929 c-4 -7 0 -9 14 -5 13 4 38 -1 63 -13 52 -25 64 -20 18 8
-37 23 -84 27 -95 10z"/>
<path d="M4714 10904 c8 -25 -2 -56 -15 -48 -5 3 -9 10 -9 15 0 6 5 7 12 3 7
-4 8 -3 4 4 -22 36 -55 -27 -35 -65 10 -19 15 -21 28 -10 12 9 13 9 7 0 -8
-15 -5 -16 18 -7 13 5 14 9 5 20 -6 8 -16 11 -23 8 -6 -3 -3 1 6 9 10 8 14 18
10 22 -4 5 9 -2 28 -15 l35 -23 -30 33 -30 33 30 -21 c42 -31 117 -39 150 -18
14 9 25 21 25 27 0 5 -10 3 -22 -5 -46 -33 -144 -10 -187 42 -12 15 -12 15 -7
-4z"/>
<path d="M4830 10790 c0 -11 5 -20 11 -20 6 0 8 8 5 18 -5 14 -4 14 9 -2 8
-11 15 -15 15 -10 0 12 -21 34 -32 34 -4 0 -8 -9 -8 -20z"/>
<path d="M4920 10675 c-7 -9 -8 -15 -2 -15 5 0 12 7 16 15 3 8 4 15 2 15 -2 0
-9 -7 -16 -15z"/>
<path d="M4844 10660 c0 -11 6 -20 11 -20 6 0 11 9 11 20 1 11 -4 20 -11 20
-7 0 -12 -9 -11 -20z"/>
<path d="M4915 10604 c17 -17 31 -30 32 -29 1 0 0 11 -4 23 -3 12 -9 19 -15
16 -5 -3 -17 0 -26 7 -9 7 -3 -1 13 -17z"/>
<path d="M5041 10607 c-8 -10 -7 -14 2 -14 8 0 14 6 14 14 0 7 -1 13 -2 13 -2
0 -8 -6 -14 -13z"/>
<path d="M5016 10565 c3 -8 10 -13 14 -10 4 3 10 -2 14 -10 6 -17 26 -20 26
-4 0 5 -4 7 -10 4 -5 -3 -10 -2 -10 4 0 6 -9 15 -20 21 -16 9 -18 8 -14 -5z"/>
<path d="M3220 10434 c-129 -75 -404 -233 -610 -351 -513 -295 -564 -332 -564
-408 0 -61 62 -112 338 -271 88 -51 162 -91 165 -88 3 2 -6 12 -19 21 -33 24
-93 83 -83 83 4 0 -7 10 -24 21 -18 12 -33 27 -33 35 0 8 -8 14 -17 14 -15 0
-16 2 -3 10 11 7 11 10 2 10 -7 0 -10 5 -7 10 3 6 -2 10 -12 10 -14 0 -15 2
-4 9 7 5 11 13 7 19 -3 5 1 13 10 16 8 3 13 10 9 15 -3 5 0 13 6 17 7 4 9 3 5
-4 -3 -6 -3 -13 2 -16 4 -2 9 11 10 30 2 19 -1 33 -5 32 -4 -2 -9 2 -10 7 -2
6 1 10 6 10 5 0 13 3 17 8 4 4 2 7 -5 7 -7 0 -9 5 -6 10 4 6 11 8 16 5 5 -4 9
-1 9 4 0 21 29 11 32 -11 2 -14 14 -25 37 -33 19 -6 37 -17 39 -23 2 -7 16
-12 30 -12 l27 1 -27 15 c-35 18 -36 37 -3 54 14 7 23 15 21 18 -3 2 -15 -3
-28 -12 -34 -24 -73 -20 -92 9 -9 14 -21 23 -26 20 -6 -4 -10 -1 -10 5 0 6 7
13 15 16 8 4 12 10 9 15 -3 6 6 19 21 31 20 16 24 23 13 29 -7 5 -13 19 -13
33 -1 21 2 23 17 15 13 -7 18 -6 16 3 -2 7 -7 16 -13 20 -6 4 -2 14 9 25 19
17 19 17 7 0 -12 -15 -12 -17 3 -11 9 3 16 10 16 16 0 14 27 38 34 31 3 -4 6
1 6 11 0 9 16 26 35 37 19 12 35 24 35 28 0 3 17 15 37 26 21 11 44 26 53 33
41 35 99 76 135 94 22 12 42 24 45 27 6 9 99 71 106 71 2 0 59 36 126 80 68
44 128 80 135 80 7 0 13 4 13 8 0 5 10 14 23 20 12 6 40 23 62 37 22 13 50 29
62 34 17 8 42 31 31 31 -2 0 -109 -62 -238 -136z m-867 -839 c-3 -9 -8 -14
-10 -11 -3 3 -2 9 2 15 9 16 15 13 8 -4z"/>
<path d="M5174 10529 c-2 -4 5 -10 16 -14 11 -4 18 -10 15 -15 -6 -10 21 -7
32 3 4 4 -3 10 -15 14 -12 3 -20 9 -17 12 2 4 -3 8 -11 8 -8 0 -17 -4 -20 -8z"/>
<path d="M5309 10531 c11 -7 11 -9 0 -13 -8 -3 -10 -9 -6 -14 9 -10 28 16 21
28 -3 4 -11 8 -17 8 -8 0 -7 -3 2 -9z"/>
<path d="M2765 9860 c-3 -5 -1 -10 4 -10 6 0 11 5 11 10 0 6 -2 10 -4 10 -3 0
-8 -4 -11 -10z"/>
<path d="M2475 9840 c-3 -5 -1 -10 4 -10 6 0 11 5 11 10 0 6 -2 10 -4 10 -3 0
-8 -4 -11 -10z"/>
<path d="M2820 9825 c-8 -9 -8 -15 -2 -15 12 0 26 19 19 26 -2 2 -10 -2 -17
-11z"/>
<path d="M2731 9816 c-19 -7 -30 -15 -24 -19 13 -8 73 11 73 24 0 11 -6 11
-49 -5z"/>
<path d="M2823 9790 c-28 -10 -54 -16 -57 -12 -3 3 -6 0 -6 -6 0 -7 5 -12 12
-12 22 0 118 34 118 42 0 11 -6 10 -67 -12z"/>
<path d="M2840 9733 c0 -5 14 -9 30 -10 18 -1 28 2 25 7 -7 12 -55 14 -55 3z"/>
<path d="M2494 9715 c-19 -14 -19 -14 2 -15 11 0 29 7 40 15 19 14 19 14 -2
15 -11 0 -29 -7 -40 -15z"/>
<path d="M2924 9698 l-19 -23 23 19 c21 18 27 26 19 26 -2 0 -12 -10 -23 -22z"/>
<path d="M2976 9674 c-11 -8 -16 -14 -10 -14 13 0 39 18 34 24 -3 2 -14 -2
-24 -10z"/>
<path d="M2555 9660 c3 -5 12 -10 20 -10 8 0 17 5 20 10 4 6 -5 10 -20 10 -15
0 -24 -4 -20 -10z"/>
<path d="M2606 9647 c-10 -11 -12 -17 -5 -13 8 3 22 9 32 12 9 4 17 10 17 13
0 14 -25 7 -44 -12z"/>
<path d="M2635 9624 c-22 -8 -46 -17 -54 -19 -8 -3 -11 -8 -8 -11 8 -8 117 27
117 37 0 11 -5 10 -55 -7z"/>
<path d="M2654 9565 c11 -8 22 -12 25 -9 6 6 -19 24 -34 24 -5 -1 -1 -7 9 -15z"/>
<path d="M2745 9560 c-3 -5 -1 -10 4 -10 6 0 11 5 11 10 0 6 -2 10 -4 10 -3 0
-8 -4 -11 -10z"/>
<path d="M2797 9489 c7 -7 15 -10 18 -7 3 3 -2 9 -12 12 -14 6 -15 5 -6 -5z"/>
<path d="M5625 8230 c-3 -5 -1 -10 4 -10 6 0 11 5 11 10 0 6 -2 10 -4 10 -3 0
-8 -4 -11 -10z"/>
<path d="M5577 8214 c-4 -4 -7 -17 -8 -28 0 -17 -2 -18 -7 -4 -7 17 -10 16
-623 -339 -103 -59 -185 -112 -182 -116 3 -4 13 -5 23 -2 10 3 21 1 24 -4 4
-6 13 -8 21 -4 11 3 13 1 9 -10 -7 -18 12 -32 22 -16 4 8 3 9 -4 5 -20 -12
-13 10 8 29 20 18 21 18 26 -1 4 -16 13 -19 65 -18 43 1 65 7 81 20 12 11 18
14 15 8 -5 -8 2 -11 18 -10 17 1 25 7 26 21 1 17 2 17 6 3 2 -10 9 -18 15 -18
19 0 1 25 -35 49 -20 13 -37 31 -37 40 0 10 55 47 145 99 115 66 151 83 177
80 18 -1 39 -8 46 -15 16 -15 33 -8 26 11 -3 7 2 13 11 13 8 0 15 -6 15 -13 0
-7 4 -16 10 -19 11 -7 2 23 -13 43 -7 9 -5 11 9 5 15 -5 17 -4 8 8 -22 29 -23
45 -1 47 16 1 18 -1 8 -7 -7 -5 -11 -15 -8 -22 3 -9 11 1 21 24 11 25 23 37
37 37 11 0 17 4 14 10 -4 6 5 20 20 32 17 13 25 27 22 39 -5 20 8 26 16 9 3
-6 4 -5 3 2 -3 14 -20 21 -29 12z"/>
<path d="M5280 7942 c-36 -22 -98 -58 -138 -82 l-74 -42 31 -19 32 -19 32 30
c32 30 62 43 33 14 -20 -20 -20 -23 2 -20 9 2 20 -1 24 -7 3 -6 6 5 5 24 -2
32 0 34 30 34 17 0 30 2 27 4 -5 5 28 30 40 31 5 0 5 -6 0 -13 -5 -7 -2 -5 8
5 9 10 24 18 35 18 17 1 17 1 0 11 -19 11 -14 29 9 29 9 0 12 -5 8 -12 -5 -7
-3 -8 6 -3 10 6 10 10 -2 19 -8 6 -15 16 -16 21 -2 21 -29 14 -92 -23z m52 -4
c-8 -8 -9 -15 -1 -25 9 -10 8 -13 -5 -13 -9 0 -16 6 -16 13 0 13 19 37 29 37
3 0 0 -5 -7 -12z m-52 -58 c0 -5 -2 -10 -4 -10 -3 0 -8 5 -11 10 -3 6 -1 10 4
10 6 0 11 -4 11 -10z"/>
<path d="M8740 7928 c-30 -17 -197 -113 -370 -213 -173 -100 -526 -303 -785
-452 -830 -477 -1396 -803 -1560 -898 -335 -193 -433 -232 -565 -222 -135 10
-120 3 -1084 559 -390 225 -714 407 -721 404 -7 -2 -142 -79 -301 -171 -159
-92 -410 -237 -559 -323 -407 -235 -505 -307 -521 -390 -8 -39 10 -93 41 -122
13 -13 22 -28 18 -34 -3 -6 -3 -8 2 -4 4 4 16 -2 26 -14 11 -11 19 -17 19 -12
0 5 7 -2 16 -14 8 -12 21 -22 29 -22 7 0 15 -4 17 -9 6 -15 96 -68 1157 -681
1114 -643 1209 -695 1335 -737 112 -37 267 -39 375 -5 92 29 228 91 283 130
47 33 840 496 1518 887 230 133 1914 1106 2145 1240 160 93 315 184 345 203
157 100 228 181 216 246 -7 34 -63 122 -73 113 -3 -3 -15 6 -28 21 l-23 27
-24 -20 -23 -20 19 23 c20 23 20 23 -2 29 -12 3 -22 10 -22 15 0 7 -5 7 -13 0
-7 -6 -18 -7 -26 -2 -8 4 -19 6 -25 4 -7 -3 -20 3 -31 12 -11 8 -13 12 -5 8
12 -6 13 -4 3 6 -7 8 -16 10 -20 6 -10 -10 11 -41 27 -41 17 0 24 -21 11 -30
-7 -3 -8 0 -5 9 4 11 0 14 -15 11 -12 -2 -19 0 -16 6 4 5 -5 13 -20 19 -23 9
-24 12 -14 31 9 17 8 20 -3 13 -7 -5 -17 -9 -23 -9 -5 -1 -9 -6 -7 -13 1 -7
-3 -12 -9 -12 -5 0 -7 -5 -3 -12 4 -7 3 -8 -5 -4 -6 4 -9 12 -6 17 4 5 -1 9
-10 9 -9 0 -14 -4 -11 -9 4 -5 -4 -7 -16 -3 -20 5 -21 6 -3 12 13 5 15 9 6 14
-6 4 -17 3 -24 -3 -8 -6 -18 -6 -27 -1 -10 6 -3 10 24 15 36 7 37 8 21 31 -9
14 -13 29 -10 34 11 17 0 11 -19 -12 -15 -17 -15 -20 -3 -15 25 10 30 -11 6
-23 -12 -7 -19 -8 -15 -2 3 5 -3 12 -14 15 -11 3 -18 1 -14 -4 3 -5 0 -9 -6
-9 -6 0 -8 -4 -5 -10 3 -5 2 -10 -3 -10 -5 0 -17 15 -26 33 -9 18 -16 25 -16
15 0 -9 -5 -20 -12 -24 -6 -4 -8 -3 -4 4 3 6 -2 16 -11 22 -17 11 -17 11 0 6
23 -7 21 7 -4 30 -16 14 -21 15 -17 4 3 -8 -4 -23 -15 -32 -25 -22 -28 -22
-21 -3 4 8 11 15 17 15 5 0 2 9 -7 19 -17 19 -17 19 6 15 l23 -5 -22 12 c-13
7 -23 16 -23 22 0 5 8 3 17 -4 15 -12 16 -12 10 4 -7 20 20 37 32 20 9 -14 39
-12 45 3 6 15 -18 26 -41 17 -12 -5 -15 -2 -11 8 4 10 -1 15 -15 16 -11 1 -31
14 -45 28 -13 15 -30 24 -39 21 -8 -3 -12 -2 -9 2 3 5 -57 44 -132 87 -75 44
-150 87 -167 97 -30 17 -31 17 -85 -14z m393 -231 c3 -8 -1 -14 -8 -14 -7 0
-11 6 -8 14 3 7 6 13 8 13 2 0 5 -6 8 -13z m60 0 c3 -8 1 -20 -4 -28 -7 -11
-9 -11 -9 -1 0 7 -4 11 -9 7 -5 -3 -13 0 -17 6 -4 8 -3 9 4 5 7 -4 12 -1 12 8
0 20 16 21 23 3z m-43 -41 c0 -3 -4 -8 -10 -11 -5 -3 -10 -1 -10 4 0 6 5 11
10 11 6 0 10 -2 10 -4z m89 -133 c0 -25 -1 -25 -8 -8 -5 11 -7 23 -4 28 8 14
13 7 12 -20z m-76 -8 c-3 -9 -8 -14 -10 -11 -3 3 -2 9 2 15 9 16 15 13 8 -4z
m47 -6 c0 -5 -4 -9 -8 -9 -5 0 -9 7 -9 15 0 8 4 12 9 9 4 -3 8 -9 8 -15z m220
-53 c0 -2 -7 -9 -15 -16 -13 -11 -14 -10 -9 4 5 14 24 23 24 12z m56 -21 c1
-8 -2 -13 -7 -9 -5 3 -9 12 -9 21 0 19 13 9 16 -12z m-183 2 c3 -8 -1 -14 -8
-14 -7 0 -11 6 -8 14 3 7 6 13 8 13 2 0 5 -6 8 -13z m151 -8 c-3 -5 -10 -7
-15 -3 -5 3 -7 10 -3 15 3 5 10 7 15 3 5 -3 7 -10 3 -15z m-79 -19 c3 -6 -1
-7 -9 -4 -18 7 -21 14 -7 14 6 0 13 -4 16 -10z m229 1 c3 -5 0 -11 -7 -14 -8
-3 -14 1 -14 9 0 16 13 19 21 5z m-60 -17 c3 -8 2 -12 -4 -9 -6 3 -10 10 -10
16 0 14 7 11 14 -7z"/>
<path d="M5158 7783 c7 -3 16 -2 19 1 4 3 -2 6 -13 5 -11 0 -14 -3 -6 -6z"/>
<path d="M5038 7703 c7 -3 16 -2 19 1 4 3 -2 6 -13 5 -11 0 -14 -3 -6 -6z"/>
<path d="M9217 7643 c3 -10 11 -24 16 -31 14 -18 76 -46 85 -38 9 10 -40 47
-55 41 -7 -2 -15 0 -18 5 -4 6 11 9 34 8 22 -1 38 -5 35 -10 -3 -4 0 -8 5 -8
15 0 14 13 -4 36 -8 10 -15 14 -15 7 0 -13 -58 -15 -66 -1 -10 15 -23 8 -17
-9z m77 -48 c11 -8 16 -15 10 -15 -5 0 -18 7 -28 15 -11 8 -16 15 -10 15 5 0
18 -7 28 -15z"/>
<path d="M9337 7641 c6 -7 9 -20 6 -27 -3 -8 -3 -14 0 -14 14 0 14 30 -1 41
-14 11 -15 11 -5 0z"/>
<path d="M9440 7545 c-10 -12 -9 -16 6 -21 11 -4 22 -9 27 -11 4 -2 7 1 7 6 0
6 -9 11 -21 11 -11 0 -17 5 -14 10 4 6 11 7 17 4 7 -4 8 -2 4 4 -9 15 -11 15
-26 -3z"/>
<path d="M9563 7495 c0 -8 4 -12 9 -9 4 3 8 9 8 15 0 5 -4 9 -8 9 -5 0 -9 -7
-9 -15z"/>
<path d="M9600 7481 c0 -6 4 -13 10 -16 6 -3 7 1 4 9 -7 18 -14 21 -14 7z"/>
<path d="M5128 6759 c-21 -10 -43 -29 -49 -42 l-12 -22 24 21 c13 12 42 31 64
43 22 12 33 21 25 21 -8 -1 -32 -10 -52 -21z"/>
<path d="M5345 6648 c-29 -16 -65 -50 -65 -62 0 -5 12 2 28 16 15 14 41 33 57
41 17 9 23 16 15 16 -8 0 -24 -5 -35 -11z"/>
<path d="M5504 6599 c-3 -6 -34 -24 -68 -41 -49 -24 -54 -28 -26 -23 38 8 97
42 105 63 6 15 -1 16 -11 1z"/>
<path d="M5689 6464 c-20 -14 -54 -32 -75 -39 -22 -8 -30 -14 -19 -14 29 -1
97 32 119 58 25 28 19 27 -25 -5z"/>
<path d="M4222 4144 c-34 -24 -68 -101 -82 -184 -41 -244 -49 -289 -92 -470
-23 -96 -44 -177 -47 -180 -8 -7 -11 -145 -5 -209 4 -35 9 -50 16 -43 10 10
61 2 109 -17 19 -8 9 -10 -49 -10 -54 -1 -73 -4 -70 -13 3 -9 33 -14 91 -16
l87 -3 0 -54 0 -55 -90 0 c-90 0 -90 0 -90 -25 0 -29 23 -79 50 -110 10 -11
20 -36 24 -55 12 -66 14 -75 49 -190 19 -63 42 -150 52 -192 17 -69 17 -79 3
-100 -14 -22 -14 -24 6 -40 16 -11 26 -35 34 -85 17 -91 49 -186 73 -217 12
-16 31 -26 47 -27 l27 -1 -25 -7 c-73 -22 -78 -22 -82 1 -4 22 -5 22 -18 -4
-7 -16 -20 -28 -28 -28 -8 0 -35 20 -61 44 -69 66 -289 226 -309 226 -5 0 -17
9 -27 20 -10 11 -22 20 -26 20 -4 0 -36 19 -71 43 -87 59 -96 64 -73 38 l20
-23 -37 22 c-47 27 -57 68 -36 143 12 40 12 59 4 82 -18 48 -35 74 -58 86 -20
11 -20 9 5 -20 14 -18 31 -50 37 -72 10 -35 8 -46 -16 -97 -14 -31 -33 -65
-42 -74 -8 -10 -11 -18 -7 -18 5 0 -2 -11 -15 -25 -40 -42 -117 -31 -176 27
-28 26 -35 28 -54 18 -12 -6 -28 -9 -36 -6 -25 10 -15 34 17 41 24 5 30 11 26
26 -3 10 1 26 8 36 12 17 14 16 21 -12 9 -39 32 -73 57 -87 16 -8 14 -2 -9 25
-37 46 -42 96 -14 141 22 37 26 66 9 66 -6 0 -41 20 -78 44 -78 52 -216 194
-284 292 -27 39 -57 75 -67 82 -11 7 -17 18 -14 27 4 10 0 15 -13 15 -17 0
-37 16 -95 79 -58 62 -100 95 -153 122 -56 28 -70 31 -129 27 -46 -3 -74 -10
-93 -24 -40 -29 -66 -90 -67 -150 0 -46 5 -58 44 -110 25 -32 88 -104 140
-160 52 -55 125 -136 162 -180 152 -178 216 -246 278 -294 36 -28 81 -65 100
-83 19 -18 56 -50 82 -70 37 -30 48 -45 53 -78 8 -47 41 -88 136 -168 168
-142 462 -358 529 -389 30 -13 95 -44 143 -68 48 -24 96 -44 106 -44 10 0 49
-16 86 -36 66 -35 130 -55 240 -74 28 -5 118 -23 200 -40 392 -81 437 -85 488
-40 56 48 79 53 131 25 25 -14 67 -36 92 -50 59 -31 82 -31 144 0 88 44 99 39
215 -103 28 -34 62 -66 76 -71 28 -10 38 -9 180 20 79 15 106 17 160 8 92 -16
170 -7 479 56 512 103 635 141 960 295 331 157 402 186 795 318 247 84 445
138 647 177 89 18 165 43 227 76 24 12 67 25 96 27 l51 4 86 -84 c98 -95 117
-105 423 -227 203 -81 383 -154 420 -171 11 -5 59 -25 108 -45 199 -80 269
-109 397 -165 74 -32 263 -113 420 -179 157 -65 339 -143 405 -171 66 -29 179
-76 250 -105 72 -29 234 -97 360 -150 496 -209 1051 -432 1085 -437 l25 -3 0
789 0 789 -270 78 c-148 43 -315 92 -370 108 -242 73 -636 187 -950 275 -317
88 -402 114 -382 115 4 1 112 -24 240 -55 128 -30 360 -86 517 -124 239 -57
866 -219 1124 -290 39 -11 76 -20 83 -20 19 0 19 1039 1 1044 -36 10 -666 128
-1163 217 -250 44 -521 80 -477 62 6 -2 12 -11 12 -18 0 -8 17 -16 41 -20 22
-4 38 -9 36 -11 -2 -3 -44 2 -92 11 -93 16 -203 21 -245 11 -14 -4 -41 -9 -60
-12 -59 -8 -64 -10 -89 -23 -14 -8 -21 -9 -17 -2 9 14 -23 14 -44 1 -13 -8
-12 -10 4 -10 46 0 1 -12 -76 -20 -108 -11 -180 -21 -248 -35 -19 -3 -48 -8
-65 -10 -86 -9 -118 -19 -122 -36 -7 -24 -18 -24 -54 2 -16 11 -29 16 -29 10
0 -5 -10 -8 -22 -6 -12 3 -26 1 -32 -4 -6 -4 -24 -8 -41 -8 -46 0 -116 -14
-110 -22 2 -5 -5 -18 -16 -30 -20 -22 -20 -23 -2 -43 18 -21 18 -21 -7 -14
-64 19 -70 19 -70 -1 0 -11 -9 -28 -21 -39 -11 -10 -35 -45 -53 -77 -20 -36
-36 -54 -39 -46 -4 10 -6 9 -6 -3 -1 -10 -5 -18 -11 -18 -5 0 -14 -15 -19 -32
-9 -33 -9 -33 -10 -5 -1 15 -10 40 -21 55 -11 15 -37 70 -56 122 -20 52 -40
100 -45 106 -5 7 -16 36 -23 65 -34 128 -112 258 -180 300 -49 30 -64 23 -26
-13 36 -35 70 -101 69 -133 0 -19 -1 -19 -12 -1 -20 32 -58 76 -66 76 -4 0 -6
-17 -4 -37 1 -21 -6 -2 -17 42 -11 44 -20 92 -20 106 0 36 -64 128 -118 169
-25 19 -53 43 -62 53 -10 10 -26 19 -38 22 -11 2 -30 9 -42 15 -20 11 -21 10
-10 -10 6 -11 14 -18 18 -16 5 3 14 0 22 -6 12 -8 12 -9 -2 -4 -23 7 -23 3 6
-42 57 -85 95 -240 101 -402 2 -58 1 -89 -1 -69 -5 38 -44 88 -44 57 0 -8 -9
-23 -20 -33 -19 -17 -20 -17 -25 1 -17 53 -33 71 -100 103 -63 31 -79 35 -156
35 -79 1 -91 -2 -161 -37 -131 -64 -221 -188 -253 -346 -18 -86 -15 -169 7
-231 12 -36 -2 -60 -37 -60 -19 0 -25 8 -36 53 -18 71 -16 208 4 285 54 205
221 380 394 412 85 16 178 7 242 -24 38 -18 51 -21 51 -11 0 22 -73 157 -113
210 -20 26 -37 54 -37 61 0 31 -110 49 -127 20 -18 -30 -113 -52 -113 -26 0 6
-12 11 -27 11 -25 1 -24 2 7 9 19 4 50 14 69 22 l33 15 -38 6 c-64 11 -174 8
-280 -7 -96 -14 -495 -30 -424 -17 l35 6 -63 33 c-118 62 -217 54 -417 -32
-145 -63 -250 -127 -251 -154 -2 -39 -4 -42 -17 -42 -8 0 -22 -9 -32 -20 -10
-11 -22 -17 -26 -14 -5 3 -9 1 -9 -4 0 -5 -20 -17 -45 -27 -25 -9 -50 -25 -55
-36 -6 -10 -20 -19 -31 -19 -11 0 -97 -61 -192 -136 -95 -76 -189 -148 -209
-162 -21 -13 -38 -26 -38 -28 0 -3 17 3 38 12 217 95 318 123 462 131 58 3
117 12 132 19 35 18 72 18 87 0 6 -7 34 -16 62 -20 46 -6 53 -5 85 24 19 16
40 30 46 30 6 0 17 8 24 18 18 24 150 19 203 -8 76 -38 76 -64 2 -140 -52 -53
-121 -81 -146 -60 -10 8 -17 6 -29 -11 -17 -24 -13 -40 5 -22 6 6 18 9 26 6
13 -5 12 -9 -6 -22 l-20 -16 24 -68 c16 -43 25 -89 25 -126 0 -81 -25 -101
-185 -151 -96 -30 -204 -85 -327 -167 -57 -37 -116 -73 -131 -80 -24 -11 -128
-87 -246 -181 -19 -15 -32 -22 -28 -16 3 6 -47 -16 -111 -48 -106 -54 -122
-59 -167 -55 -27 2 -59 8 -70 12 -11 4 0 -7 25 -25 43 -31 109 -98 110 -111 0
-4 -17 -18 -37 -32 -21 -14 -58 -40 -82 -58 -43 -32 -44 -32 -26 -6 l17 27
-63 -4 c-35 -3 -78 -10 -96 -16 l-31 -11 22 -34 c23 -33 41 -108 31 -124 -2
-5 10 -11 27 -15 32 -6 68 -32 68 -48 0 -5 -10 0 -22 12 -12 11 -33 20 -47 20
-27 0 -82 39 -149 105 -30 30 -185 140 -215 153 -9 5 -77 -54 -71 -61 3 -2 -7
-2 -22 1 -19 3 -22 7 -12 13 9 6 7 9 -9 9 -12 0 -24 4 -27 8 -3 5 8 6 25 4 40
-6 59 13 60 62 1 35 2 37 9 16 6 -20 8 -14 9 27 1 45 -3 57 -30 88 -18 20 -34
33 -37 31 -14 -14 -41 20 -62 76 -12 35 -35 88 -50 118 -15 30 -30 67 -33 81
-4 14 -14 43 -24 65 -9 21 -27 68 -39 104 -12 36 -23 56 -24 45 -1 -18 -2 -18
-11 4 -8 22 -14 23 -57 18 -26 -3 -41 -3 -34 0 8 3 10 9 4 16 -13 17 -23 63
-28 136 l-5 63 48 -7 c50 -7 85 -31 89 -62 1 -10 9 -40 17 -68 12 -40 16 -46
22 -31 6 13 1 32 -13 57 -24 42 -27 53 -11 43 22 -13 -20 52 -53 83 -49 44
-104 57 -187 43 -91 -16 -155 -45 -196 -91 -29 -32 -35 -47 -35 -82 0 -24 5
-48 11 -54 6 -6 16 -35 23 -64 11 -51 13 -54 40 -51 l29 3 -34 -28 c-57 -46
-55 -24 -14 -238 13 -66 26 -137 30 -157 l6 -37 -43 -3 -43 -3 47 -23 c45 -22
48 -26 59 -83 16 -83 28 -96 73 -82 l36 11 0 -49 c0 -39 -3 -48 -13 -42 -8 4
-51 33 -97 63 -46 30 -86 54 -90 53 -16 -5 -41 36 -42 66 -1 31 -28 69 -28 40
0 -8 -9 2 -21 21 -11 19 -37 49 -57 67 -29 26 -34 35 -24 45 16 16 15 28 -1
28 -13 0 -28 49 -43 133 -4 26 -14 42 -29 49 -24 11 -55 66 -55 98 0 11 -5 20
-11 20 -6 0 -9 -9 -6 -20 3 -10 -1 -27 -9 -37 -11 -14 -13 -15 -14 -3 0 8 -9
33 -20 55 -11 22 -19 46 -20 53 0 7 -5 10 -11 7 -6 -4 -8 -13 -5 -21 3 -8 1
-14 -4 -14 -5 0 -12 25 -15 55 -4 30 -11 53 -15 50 -4 -2 -5 7 -2 21 3 15 0
29 -5 33 -10 6 -39 106 -45 151 -3 25 -36 50 -67 50 -12 0 -13 2 -3 8 7 5 10
16 6 25 -3 9 -2 17 4 17 5 0 12 -7 16 -15 3 -9 18 -15 38 -14 l33 1 -35 13
-35 13 33 1 c36 1 36 1 20 36 -10 22 -17 26 -42 22 -35 -5 -66 18 -66 50 0 25
34 39 69 28 17 -5 22 0 30 32 6 21 20 52 30 70 l20 31 -52 7 c-62 9 -71 13
-58 29 5 6 10 32 10 56 0 25 1 64 1 88 1 23 -3 48 -7 55 -4 6 -8 28 -9 47 -1
19 -5 43 -9 53 -7 17 -8 17 -20 0 -11 -15 -13 -14 -10 14 5 67 -52 40 -96 -45
-8 -15 -17 -29 -20 -32 -7 -6 -94 -186 -109 -225 -8 -20 -7 -31 1 -41 9 -12 9
-13 -4 -8 -9 3 -18 13 -20 22 -3 13 -5 11 -6 -4 -1 -25 34 -51 79 -61 31 -6
52 -23 28 -23 -7 0 -30 -5 -50 -11 -37 -10 -68 -48 -68 -83 0 -12 4 -13 28 -1
15 7 62 19 105 25 86 13 107 4 107 -44 0 -30 -8 -33 -123 -42 -63 -5 -91 -3
-102 6 -21 18 -20 -7 4 -75 19 -54 19 -55 0 -55 -14 0 -18 -6 -15 -27 2 -16 2
-23 -1 -18 -2 6 -41 26 -87 46 l-83 36 67 -131 c100 -199 122 -272 128 -439 4
-122 3 -140 -13 -157 -10 -11 -22 -20 -26 -20 -11 0 -36 88 -49 172 -21 136
-87 288 -180 418 -22 30 -40 61 -40 68 0 14 -43 16 -68 3 -9 -4 -30 -11 -47
-15 -24 -5 -19 0 23 24 56 33 67 45 26 30 -33 -13 -54 -13 -34 0 12 8 9 10
-13 10 -51 0 -97 74 -97 155 1 73 63 152 113 143 27 -5 33 20 10 37 -8 6 -15
20 -16 32 -2 26 -17 20 -17 -8 0 -27 -20 -24 -21 4 -1 12 -1 25 0 29 0 3 -6
41 -14 83 -8 42 -16 113 -16 158 l-2 82 -7 -60 c-4 -33 -13 -117 -20 -187 -7
-71 -17 -128 -22 -128 -5 0 -7 3 -5 8 5 7 11 75 23 240 5 73 4 92 -7 92 -8 0
-6 5 6 13 15 12 17 22 11 58 -4 27 -3 39 3 30 6 -9 8 1 8 30 -1 24 5 94 13
156 16 127 8 198 -33 286 -23 51 -76 117 -94 117 -5 0 -19 -7 -31 -16z m-35
-146 c-3 -7 -5 -2 -5 12 0 14 2 19 5 13 2 -7 2 -19 0 -25z m15 -80 c2 -20 0
-34 -4 -32 -4 3 -8 24 -7 47 1 47 6 41 11 -15z m4903 -358 c-3 -5 -15 -10 -26
-10 -11 0 -17 5 -14 10 3 6 15 10 26 10 11 0 17 -4 14 -10z m-365 -30 c-20
-13 -73 -13 -65 0 3 6 23 10 43 10 28 0 33 -3 22 -10z m-4393 -32 c-3 -7 -5
-2 -5 12 0 14 2 19 5 13 2 -7 2 -19 0 -25z m4318 -1 c6 0 39 3 75 8 89 10 73
0 -39 -24 -110 -24 -128 -34 -51 -28 52 4 54 4 25 -9 -16 -7 -50 -16 -75 -19
-25 -4 -63 -14 -85 -22 -57 -22 -81 -23 -127 -7 -42 15 -106 17 -148 5 -31 -9
-130 19 -130 37 0 12 84 30 175 37 44 4 98 11 120 15 75 17 90 19 170 13 44
-3 85 -5 90 -6z m99 -148 c-80 -56 -81 -57 -59 -73 17 -12 17 -17 5 -45 -20
-50 -50 -68 -107 -64 -40 3 -53 9 -76 36 -15 17 -41 46 -57 64 -17 18 -30 35
-30 38 0 3 26 3 58 -1 58 -6 76 -1 262 71 63 25 64 16 4 -26z m1011 -238 c33
-132 37 -168 32 -259 -4 -97 -20 -132 -58 -132 -36 0 -42 35 -40 249 2 212 10
263 37 227 7 -10 20 -48 29 -85z m-4770 79 c3 -5 1 -10 -4 -10 -6 0 -11 5 -11
10 0 6 2 10 4 10 3 0 8 -4 11 -10z m6785 -16 c0 -2 -9 -4 -20 -4 -11 0 -20 4
-20 9 0 5 9 7 20 4 11 -3 20 -7 20 -9z m-7520 -221 c0 -39 -16 -62 -22 -31 -5
30 1 58 13 58 5 0 9 -12 9 -27z m5698 -68 c11 -11 4 -125 -10 -180 l-13 -50
-49 2 c-26 1 -50 3 -52 6 -3 2 2 57 11 121 8 64 15 121 15 126 0 9 86 -13 98
-25z m-4888 -54 c0 -8 -101 -22 -109 -15 -2 2 7 8 20 13 31 12 89 14 89 2z
m840 -31 c-8 -5 -24 -9 -35 -9 l-20 0 20 9 c11 5 27 9 35 9 13 1 13 0 0 -9z
m3767 -37 c-3 -10 -5 -4 -5 12 0 17 2 24 5 18 2 -7 2 -21 0 -30z m-3747 -12
c0 -11 -4 -23 -10 -26 -6 -4 -10 5 -10 19 0 14 5 26 10 26 6 0 10 -9 10 -19z
m-180 -61 c-20 -13 -53 -13 -45 0 3 6 18 10 33 10 21 0 24 -2 12 -10z m185
-42 c4 -22 14 -56 21 -74 8 -19 10 -34 5 -34 -12 0 -37 64 -46 119 -5 29 -4
41 3 37 6 -3 13 -25 17 -48z m2695 -30 c39 -67 36 -97 -10 -120 -235 -117
-292 -143 -475 -208 -222 -79 -386 -132 -391 -127 -3 2 47 34 110 71 62 36
133 83 157 104 24 21 123 77 219 124 96 47 213 113 260 146 47 33 88 60 92 61
4 1 21 -23 38 -51z m-2930 32 c0 -5 -7 -10 -16 -10 -8 0 -12 5 -9 10 3 6 10
10 16 10 5 0 9 -4 9 -10z m3870 -34 c0 -69 -68 -139 -85 -86 -8 25 -27 25
-127 -1 -44 -11 -82 -18 -85 -16 -2 3 47 26 109 52 159 67 188 75 188 51z
m-3863 -48 c-3 -7 -5 -2 -5 12 0 14 2 19 5 13 2 -7 2 -19 0 -25z m3263 -27 c0
-4 18 -29 40 -54 22 -25 40 -48 40 -52 0 -6 -71 -38 -74 -33 -2 2 -19 25 -39
52 -38 50 -46 81 -24 89 20 9 57 8 57 -2z m610 -66 c0 -13 -10 -53 -23 -88
-24 -66 -96 -202 -103 -194 -11 10 40 141 66 171 30 34 38 56 20 56 -5 0 -7 6
-5 13 19 54 26 67 35 67 5 0 10 -11 10 -25z m-843 -50 c15 -19 33 -35 39 -35
6 0 18 -7 25 -16 10 -12 25 -15 59 -11 l45 5 -70 -34 c-38 -19 -151 -68 -250
-110 -231 -97 -595 -275 -801 -392 -181 -102 -181 -102 -394 -182 -178 -67
-201 -74 -329 -100 -52 -11 -99 -24 -105 -29 -18 -14 -147 -54 -153 -47 -8 7
76 45 100 46 15 0 18 7 15 41 -3 41 -3 42 42 57 25 8 56 19 70 24 14 4 75 46
135 93 61 46 140 103 177 126 61 37 260 131 348 164 62 24 9 15 -130 -20 -74
-19 -136 -33 -137 -31 -1 1 43 28 99 59 73 41 130 65 198 82 137 35 387 123
820 289 80 31 150 56 157 56 7 0 25 -16 40 -35z m-5549 -221 c-10 -10 -28 6
-28 24 0 15 1 15 17 -1 9 -9 14 -19 11 -23z m497 -44 c3 -6 -1 -7 -9 -4 -18 7
-21 14 -7 14 6 0 13 -4 16 -10z m2062 -52 c-3 -8 -6 -5 -6 6 -1 11 2 17 5 13
3 -3 4 -12 1 -19z m-887 -53 c0 -32 -4 -45 -14 -45 -21 0 -29 33 -15 64 18 39
29 32 29 -19z m415 -2 c-9 -8 -19 -13 -22 -9 -9 8 18 37 28 30 5 -3 2 -12 -6
-21z m230 0 c50 -53 69 -102 69 -178 0 -53 -5 -80 -21 -111 -27 -50 -40 -56
-99 -45 -51 10 -82 34 -89 70 l-4 24 24 -23 c13 -13 22 -27 19 -31 -11 -18 49
-21 83 -5 101 48 75 252 -36 279 -44 11 -98 -21 -92 -55 0 -5 -3 -8 -8 -8 -5
0 -7 -10 -4 -22 4 -21 3 -21 -7 -5 -25 39 31 117 84 117 24 0 27 3 16 10 -12
8 -9 10 12 10 17 0 37 -11 53 -27z m-310 -3 c-3 -5 -11 -10 -16 -10 -6 0 -7 5
-4 10 3 6 11 10 16 10 6 0 7 -4 4 -10z m1161 -70 c15 -22 24 -43 20 -47 -3 -3
-6 0 -6 7 0 7 -16 28 -36 46 -23 22 -30 34 -20 34 9 0 28 -18 42 -40z m-1428
18 c-3 -7 -19 -15 -36 -19 -17 -3 -43 -14 -57 -23 -29 -19 -59 -72 -49 -88 4
-7 3 -8 -4 -4 -9 5 -12 -10 -12 -51 0 -97 56 -158 138 -151 21 2 36 -1 35 -7
-2 -6 -26 -11 -54 -13 -47 -3 -53 0 -89 35 -44 44 -65 106 -55 163 10 61 59
128 108 150 48 22 81 26 75 8z m1309 -60 c-3 -7 -5 -2 -5 12 0 14 2 19 5 13 2
-7 2 -19 0 -25z m-884 -88 c4 -22 3 -30 -2 -20 -5 8 -12 33 -15 55 -8 49 8 18
17 -35z m-215 33 c-3 -26 -7 -28 -118 -48 -113 -21 -115 -21 -118 -2 -2 11 0
23 5 28 7 6 181 44 221 48 9 1 12 -8 10 -26z m1032 17 c0 -5 -2 -10 -4 -10 -3
0 -8 5 -11 10 -3 6 -1 10 4 10 6 0 11 -4 11 -10z m-70 -16 c0 -8 -17 -22 -37
-31 -21 -8 -69 -31 -107 -49 -73 -36 -90 -38 -60 -5 14 14 148 81 202 100 1 1
2 -6 2 -15z m-1740 -84 c0 -5 -12 -10 -26 -10 -36 0 -90 -27 -108 -54 -25 -40
-37 -98 -26 -138 14 -48 52 -85 90 -86 16 0 39 -4 51 -7 22 -7 64 15 91 49 24
28 23 5 -1 -25 -10 -13 -16 -29 -14 -36 5 -14 -20 -28 -65 -36 -21 -5 -31 -3
-27 4 4 6 -3 8 -22 4 -21 -5 -24 -4 -13 4 12 9 11 11 -8 11 -34 0 -88 58 -102
109 -28 105 46 221 142 221 21 0 38 -4 38 -10z m1855 -1 c11 -17 -1 -21 -15
-4 -8 9 -8 15 -2 15 6 0 14 -5 17 -11z m825 0 c0 -5 -4 -8 -9 -5 -5 4 -11 3
-13 -2 -1 -4 -19 -18 -38 -31 l-35 -23 39 36 c40 37 56 44 56 25z m-880 -50
c0 -5 -43 -29 -96 -53 -77 -37 -100 -43 -120 -36 -28 11 -32 30 -6 31 9 0 58
20 107 43 63 30 94 40 103 33 6 -5 12 -13 12 -18z m-1576 -24 c3 -8 1 -15 -3
-15 -5 0 -11 7 -15 15 -3 8 -1 15 3 15 5 0 11 -7 15 -15z m376 -95 c0 -5 -12
-10 -27 -9 l-28 1 25 8 c14 4 26 8 28 9 1 1 2 -3 2 -9z m-786 -77 c8 -20 -1
-30 -36 -38 -21 -5 -27 -3 -33 15 -12 37 55 59 69 23z m860 9 c3 -5 -8 -22
-24 -37 -25 -24 -31 -26 -46 -14 -15 12 -14 15 12 36 30 24 49 29 58 15z
m-964 -84 c0 -15 -19 -8 -29 11 -14 25 0 37 16 15 7 -10 13 -21 13 -26z m850
17 c6 -8 9 -19 5 -25 -13 -22 -105 -5 -105 20 0 5 17 11 38 13 20 2 40 4 43 5
4 1 12 -5 19 -13z m1285 -135 c21 -16 33 -30 27 -30 -12 0 -82 59 -71 60 3 0
23 -13 44 -30z"/>
<path d="M7835 1985 c-163 -49 -406 -155 -460 -200 l-20 -17 20 7 c87 29 473
173 523 196 34 15 62 33 62 38 0 14 1 15 -125 -24z"/>
<path d="M5471 2058 c2 -2 22 -19 44 -38 l40 -35 -34 38 c-19 20 -39 37 -45
37 -5 0 -7 -1 -5 -2z"/>
<path d="M5572 1850 c0 -14 2 -19 5 -12 2 6 2 18 0 25 -3 6 -5 1 -5 -13z"/>
<path d="M5380 1786 c0 -2 8 -10 18 -17 15 -13 16 -12 3 4 -13 16 -21 21 -21
13z"/>
<path d="M5523 1753 c-17 -18 -28 -33 -24 -33 9 0 66 59 60 63 -2 1 -18 -12
-36 -30z"/>
<path d="M4395 1491 c-6 -5 -19 -11 -30 -14 -20 -5 -19 -5 1 -6 11 0 29 6 40
14 10 8 14 15 9 15 -6 0 -15 -4 -20 -9z"/>
<path d="M3967 3595 c-16 -54 -17 -146 -2 -199 9 -31 18 -56 20 -56 3 0 9 10
16 21 6 12 7 19 1 15 -12 -7 -21 58 -11 77 4 7 2 47 -5 88 -8 48 -15 67 -19
54z"/>
<path d="M9248 3583 c7 -3 16 -2 19 1 4 3 -2 6 -13 5 -11 0 -14 -3 -6 -6z"/>
<path d="M4580 3560 c0 -5 5 -10 10 -10 6 0 10 5 10 10 0 6 -4 10 -10 10 -5 0
-10 -4 -10 -10z"/>
<path d="M4382 3530 c0 -14 2 -19 5 -12 2 6 2 18 0 25 -3 6 -5 1 -5 -13z"/>
<path d="M4621 3485 c27 -38 33 -55 37 -118 5 -75 2 -84 -52 -182 -9 -16 -16
-42 -16 -57 0 -14 -5 -28 -11 -30 -9 -3 -9 -10 0 -26 17 -32 26 -27 50 27 70
164 66 381 -7 420 -34 18 -35 13 -1 -34z"/>
<path d="M9775 3490 c3 -5 8 -10 11 -10 2 0 4 5 4 10 0 6 -5 10 -11 10 -5 0
-7 -4 -4 -10z"/>
<path d="M7669 3353 c-13 -16 -12 -17 4 -4 9 7 17 15 17 17 0 8 -8 3 -21 -13z"/>
<path d="M6056 3298 c36 -62 43 -67 82 -55 20 6 38 11 39 11 1 1 4 13 8 29 l7
27 -72 0 c-54 0 -69 -3 -64 -12z"/>
<path d="M6132 3228 c-15 -8 -21 -17 -16 -27 11 -28 32 -95 38 -123 4 -17 13
-28 23 -28 14 0 15 9 9 61 -3 34 -6 77 -6 95 0 36 -9 40 -48 22z"/>
<path d="M5298 3113 c6 -2 18 -2 25 0 6 3 1 5 -13 5 -14 0 -19 -2 -12 -5z"/>
<path d="M5383 3088 c30 -48 39 -116 23 -176 -12 -47 -12 -52 1 -39 23 23 28
120 9 171 -9 24 -25 50 -34 58 -15 12 -15 10 1 -14z"/>
<path d="M4513 3089 c52 -30 73 -166 38 -239 -23 -48 -11 -53 17 -7 28 45 36
96 22 148 -14 53 -54 109 -78 109 -15 -1 -15 -2 1 -11z"/>
<path d="M5245 3070 c-10 -11 -16 -22 -14 -24 2 -2 12 7 22 20 22 29 17 32 -8
4z"/>
<path d="M4390 3023 c-34 -49 -34 -147 -1 -187 21 -26 93 -21 120 8 71 76 31
216 -63 216 -24 0 -36 -8 -56 -37z"/>
<path d="M5221 3014 c0 -11 3 -14 6 -6 3 7 2 16 -1 19 -3 4 -6 -2 -5 -13z"/>
<path d="M4480 2800 c-9 -6 -10 -10 -3 -10 6 0 15 5 18 10 8 12 4 12 -15 0z"/>
<path d="M3431 2616 c2 -2 18 -6 34 -10 22 -5 26 -4 15 4 -14 9 -59 15 -49 6z"/>
<path d="M5504 2472 c4 -53 10 -114 13 -134 l5 -36 89 75 c49 42 89 80 89 85
0 23 -33 68 -53 73 -12 3 -51 11 -86 19 l-64 15 7 -97z"/>
<path d="M3560 2556 c0 -2 8 -10 18 -17 15 -13 16 -12 3 4 -13 16 -21 21 -21
13z"/>
<path d="M3393 2490 c-33 -13 -29 -17 18 -16 28 1 44 -4 49 -14 4 -8 15 -29
24 -47 9 -18 23 -50 31 -72 13 -37 12 -42 -8 -68 -17 -23 -18 -25 -3 -13 68
54 54 179 -25 222 -37 20 -53 21 -86 8z"/>
<path d="M6808 2043 c6 -2 18 -2 25 0 6 3 1 5 -13 5 -14 0 -19 -2 -12 -5z"/>
<path d="M6860 2030 c8 -5 20 -10 25 -10 6 0 3 5 -5 10 -8 5 -19 10 -25 10 -5
0 -3 -5 5 -10z"/>
</g>
</svg>
