<svg width="33" height="34" viewBox="0 0 33 34" fill="none" xmlns="http://www.w3.org/2000/svg">
<path d="M16.3575 0.529419C13.1223 0.529419 9.95976 1.4954 7.26978 3.30521C4.5798 5.11502 2.48321 7.68738 1.24514 10.697C0.00708065 13.7066 -0.316854 17.0183 0.314305 20.2133C0.945464 23.4082 2.50337 26.343 4.79101 28.6465C7.07865 30.9499 9.99329 32.5186 13.1663 33.1541C16.3394 33.7896 19.6283 33.4635 22.6173 32.2168C25.6062 30.9702 28.1609 28.8592 29.9583 26.1506C31.7557 23.442 32.7151 20.2576 32.7151 17L24.5363 17C24.5363 18.6288 24.0566 20.221 23.1579 21.5753C22.2592 22.9296 20.9819 23.9851 19.4874 24.6084C17.9929 25.2317 16.3485 25.3948 14.7619 25.0771C13.1754 24.7593 11.7181 23.975 10.5743 22.8232C9.43045 21.6715 8.6515 20.2041 8.33592 18.6066C8.02034 17.0091 8.18231 15.3533 8.80134 13.8485C9.42038 12.3437 10.4687 11.0575 11.8137 10.1526C13.1587 9.2477 14.7399 8.76471 16.3575 8.76471L16.3575 0.529419Z" fill="white"/>
<path d="M16.3575 0.529419C14.2094 0.529419 12.0824 0.955443 10.0978 1.78317C8.11319 2.61089 6.30995 3.82411 4.79101 5.35354C3.27207 6.88298 2.06719 8.69868 1.24514 10.697C0.4231 12.6953 -3.24354e-07 14.8371 0 17L8.17877 17C8.17877 15.9185 8.39032 14.8476 8.80134 13.8485C9.21236 12.8493 9.81481 11.9415 10.5743 11.1768C11.3337 10.4121 12.2354 9.80545 13.2277 9.39159C14.22 8.97773 15.2835 8.76471 16.3575 8.76471L16.3575 0.529419Z" fill="#62FF48"/>
<ellipse cx="16.3578" cy="17" rx="5.11173" ry="5.14706" fill="#62FF48"/>
<path d="M21.4696 17C21.4696 16.3241 21.3373 15.6548 21.0805 15.0303C20.8236 14.4058 20.447 13.8384 19.9724 13.3605C19.4977 12.8825 18.9342 12.5034 18.314 12.2447C17.6938 11.9861 17.0291 11.8529 16.3578 11.8529C15.6865 11.8529 15.0218 11.9861 14.4017 12.2447C13.7815 12.5034 13.218 12.8825 12.7433 13.3605C12.2686 13.8384 11.8921 14.4058 11.6352 15.0303C11.3783 15.6548 11.2461 16.3241 11.2461 17L16.3578 17H21.4696Z" fill="white"/>
</svg>