<svg width="356" height="32" viewBox="0 0 356 32" fill="none" xmlns="http://www.w3.org/2000/svg">
<path d="M16 0C12.8355 -3.77363e-08 9.74206 0.938383 7.11088 2.69649C4.47969 4.45459 2.42893 6.95345 1.21793 9.87706C0.00692588 12.8007 -0.309928 16.0177 0.307435 19.1214C0.924798 22.2251 2.44865 25.0761 4.68629 27.3137C6.92393 29.5513 9.77485 31.0752 12.8786 31.6926C15.9822 32.3099 19.1993 31.9931 22.1229 30.7821C25.0465 29.5711 27.5454 27.5203 29.3035 24.8891C31.0616 22.2579 32 19.1645 32 16L24 16C24 17.5823 23.5308 19.129 22.6518 20.4446C21.7727 21.7602 20.5233 22.7855 19.0615 23.391C17.5997 23.9965 15.9911 24.155 14.4393 23.8463C12.8874 23.5376 11.462 22.7757 10.3431 21.6569C9.22432 20.538 8.4624 19.1126 8.15372 17.5607C7.84504 16.0089 8.00346 14.4003 8.60896 12.9385C9.21447 11.4767 10.2398 10.2273 11.5554 9.34824C12.871 8.46919 14.4177 8 16 8V0Z" fill="white"/>
<path d="M16 0C13.8989 -2.5056e-08 11.8183 0.413852 9.87706 1.21793C7.93585 2.022 6.17203 3.20055 4.68629 4.68629C3.20055 6.17203 2.022 7.93586 1.21793 9.87707C0.413852 11.8183 -3.17265e-07 13.8989 0 16H8C8 14.9494 8.20693 13.9091 8.60896 12.9385C9.011 11.9679 9.60028 11.086 10.3431 10.3431C11.086 9.60028 11.9679 9.011 12.9385 8.60896C13.9091 8.20693 14.9494 8 16 8V0Z" fill="#62FF48"/>
<circle cx="16" cy="16" r="5" fill="#62FF48"/>
<path d="M21 16C21 15.3434 20.8707 14.6932 20.6194 14.0866C20.3681 13.48 19.9998 12.9288 19.5355 12.4645C19.0712 12.0002 18.52 11.6319 17.9134 11.3806C17.3068 11.1293 16.6566 11 16 11C15.3434 11 14.6932 11.1293 14.0866 11.3806C13.48 11.6319 12.9288 12.0002 12.4645 12.4645C12.0002 12.9288 11.6319 13.48 11.3806 14.0866C11.1293 14.6932 11 15.3434 11 16L16 16H21Z" fill="white"/>
<path d="M70.91 15.9C70.91 14.1147 71.3087 12.52 72.106 11.116C72.9207 9.69467 74.0213 8.594 75.408 7.814C76.812 7.01667 78.3807 6.618 80.114 6.618C82.142 6.618 83.9187 7.138 85.444 8.178C86.9693 9.218 88.0353 10.6567 88.642 12.494H84.456C84.04 11.6273 83.4507 10.9773 82.688 10.544C81.9427 10.1107 81.076 9.894 80.088 9.894C79.0307 9.894 78.086 10.1453 77.254 10.648C76.4393 11.1333 75.798 11.8267 75.33 12.728C74.8793 13.6293 74.654 14.6867 74.654 15.9C74.654 17.096 74.8793 18.1533 75.33 19.072C75.798 19.9733 76.4393 20.6753 77.254 21.178C78.086 21.6633 79.0307 21.906 80.088 21.906C81.076 21.906 81.9427 21.6893 82.688 21.256C83.4507 20.8053 84.04 20.1467 84.456 19.28H88.642C88.0353 21.1347 86.9693 22.582 85.444 23.622C83.936 24.6447 82.1593 25.156 80.114 25.156C78.3807 25.156 76.812 24.766 75.408 23.986C74.0213 23.1887 72.9207 22.088 72.106 20.684C71.3087 19.28 70.91 17.6853 70.91 15.9ZM98.147 25.234C96.7604 25.234 95.5124 24.9307 94.403 24.324C93.2937 23.7 92.4184 22.8247 91.777 21.698C91.153 20.5713 90.841 19.2713 90.841 17.798C90.841 16.3247 91.1617 15.0247 91.803 13.898C92.4617 12.7713 93.3544 11.9047 94.481 11.298C95.6077 10.674 96.8644 10.362 98.251 10.362C99.6377 10.362 100.894 10.674 102.021 11.298C103.148 11.9047 104.032 12.7713 104.673 13.898C105.332 15.0247 105.661 16.3247 105.661 17.798C105.661 19.2713 105.323 20.5713 104.647 21.698C103.988 22.8247 103.087 23.7 101.943 24.324C100.816 24.9307 99.551 25.234 98.147 25.234ZM98.147 22.062C98.8057 22.062 99.421 21.906 99.993 21.594C100.582 21.2647 101.05 20.7793 101.397 20.138C101.744 19.4967 101.917 18.7167 101.917 17.798C101.917 16.4287 101.553 15.38 100.825 14.652C100.114 13.9067 99.239 13.534 98.199 13.534C97.159 13.534 96.2837 13.9067 95.573 14.652C94.8797 15.38 94.533 16.4287 94.533 17.798C94.533 19.1673 94.871 20.2247 95.547 20.97C96.2404 21.698 97.107 22.062 98.147 22.062ZM126.219 10.388C127.987 10.388 129.408 10.934 130.483 12.026C131.575 13.1007 132.121 14.6087 132.121 16.55V25H128.481V17.044C128.481 15.9173 128.195 15.0593 127.623 14.47C127.051 13.8633 126.271 13.56 125.283 13.56C124.295 13.56 123.506 13.8633 122.917 14.47C122.345 15.0593 122.059 15.9173 122.059 17.044V25H118.419V17.044C118.419 15.9173 118.133 15.0593 117.561 14.47C116.989 13.8633 116.209 13.56 115.221 13.56C114.216 13.56 113.418 13.8633 112.829 14.47C112.257 15.0593 111.971 15.9173 111.971 17.044V25H108.331V10.596H111.971V12.338C112.439 11.7313 113.037 11.2547 113.765 10.908C114.51 10.5613 115.325 10.388 116.209 10.388C117.336 10.388 118.341 10.6307 119.225 11.116C120.109 11.584 120.794 12.26 121.279 13.144C121.747 12.312 122.423 11.6447 123.307 11.142C124.208 10.6393 125.179 10.388 126.219 10.388ZM139.215 12.676C139.683 12.0173 140.325 11.4713 141.139 11.038C141.971 10.5873 142.916 10.362 143.973 10.362C145.204 10.362 146.313 10.6653 147.301 11.272C148.307 11.8787 149.095 12.7453 149.667 13.872C150.257 14.9813 150.551 16.2727 150.551 17.746C150.551 19.2193 150.257 20.528 149.667 21.672C149.095 22.7987 148.307 23.674 147.301 24.298C146.313 24.922 145.204 25.234 143.973 25.234C142.916 25.234 141.98 25.0173 141.165 24.584C140.368 24.1507 139.718 23.6047 139.215 22.946V31.864H135.575V10.596H139.215V12.676ZM146.833 17.746C146.833 16.8793 146.651 16.134 146.287 15.51C145.941 14.8687 145.473 14.3833 144.883 14.054C144.311 13.7247 143.687 13.56 143.011 13.56C142.353 13.56 141.729 13.7333 141.139 14.08C140.567 14.4093 140.099 14.8947 139.735 15.536C139.389 16.1773 139.215 16.9313 139.215 17.798C139.215 18.6647 139.389 19.4187 139.735 20.06C140.099 20.7013 140.567 21.1953 141.139 21.542C141.729 21.8713 142.353 22.036 143.011 22.036C143.687 22.036 144.311 21.8627 144.883 21.516C145.473 21.1693 145.941 20.6753 146.287 20.034C146.651 19.3927 146.833 18.63 146.833 17.746ZM166.794 10.596V25H163.128V23.18C162.66 23.804 162.045 24.298 161.282 24.662C160.537 25.0087 159.722 25.182 158.838 25.182C157.712 25.182 156.715 24.948 155.848 24.48C154.982 23.9947 154.297 23.2927 153.794 22.374C153.309 21.438 153.066 20.3287 153.066 19.046V10.596H156.706V18.526C156.706 19.67 156.992 20.554 157.564 21.178C158.136 21.7847 158.916 22.088 159.904 22.088C160.91 22.088 161.698 21.7847 162.27 21.178C162.842 20.554 163.128 19.67 163.128 18.526V10.596H166.794ZM174.624 13.586V20.554C174.624 21.0393 174.736 21.3947 174.962 21.62C175.204 21.828 175.603 21.932 176.158 21.932H177.848V25H175.56C172.492 25 170.958 23.5093 170.958 20.528V13.586H169.242V10.596H170.958V7.034H174.624V10.596H177.848V13.586H174.624ZM193.856 17.486C193.856 18.006 193.821 18.474 193.752 18.89H183.222C183.309 19.93 183.673 20.7447 184.314 21.334C184.955 21.9233 185.744 22.218 186.68 22.218C188.032 22.218 188.994 21.6373 189.566 20.476H193.492C193.076 21.8627 192.279 23.0067 191.1 23.908C189.921 24.792 188.474 25.234 186.758 25.234C185.371 25.234 184.123 24.9307 183.014 24.324C181.922 23.7 181.064 22.8247 180.44 21.698C179.833 20.5713 179.53 19.2713 179.53 17.798C179.53 16.3073 179.833 14.9987 180.44 13.872C181.047 12.7453 181.896 11.8787 182.988 11.272C184.08 10.6653 185.337 10.362 186.758 10.362C188.127 10.362 189.349 10.6567 190.424 11.246C191.516 11.8353 192.357 12.676 192.946 13.768C193.553 14.8427 193.856 16.082 193.856 17.486ZM190.086 16.446C190.069 15.51 189.731 14.7647 189.072 14.21C188.413 13.638 187.607 13.352 186.654 13.352C185.753 13.352 184.99 13.6293 184.366 14.184C183.759 14.7213 183.387 15.4753 183.248 16.446H190.086ZM200.153 12.832C200.621 12.0693 201.227 11.4713 201.973 11.038C202.735 10.6047 203.602 10.388 204.573 10.388V14.21H203.611C202.467 14.21 201.6 14.4787 201.011 15.016C200.439 15.5533 200.153 16.4893 200.153 17.824V25H196.513V10.596H200.153V12.832Z" fill="white"/>
<path d="M213.29 25.182C212.025 25.182 210.881 24.9653 209.858 24.532C208.853 24.0987 208.056 23.4747 207.466 22.66C206.877 21.8453 206.574 20.8833 206.556 19.774H210.456C210.508 20.5193 210.768 21.1087 211.236 21.542C211.722 21.9753 212.38 22.192 213.212 22.192C214.062 22.192 214.729 21.9927 215.214 21.594C215.7 21.178 215.942 20.6407 215.942 19.982C215.942 19.4447 215.778 19.0027 215.448 18.656C215.119 18.3093 214.703 18.0407 214.2 17.85C213.715 17.642 213.039 17.4167 212.172 17.174C210.994 16.8273 210.032 16.4893 209.286 16.16C208.558 15.8133 207.926 15.302 207.388 14.626C206.868 13.9327 206.608 13.014 206.608 11.87C206.608 10.7953 206.877 9.85933 207.414 9.062C207.952 8.26467 208.706 7.658 209.676 7.242C210.647 6.80867 211.756 6.592 213.004 6.592C214.876 6.592 216.393 7.05133 217.554 7.97C218.733 8.87133 219.383 10.1367 219.504 11.766H215.5C215.466 11.142 215.197 10.6307 214.694 10.232C214.209 9.816 213.559 9.608 212.744 9.608C212.034 9.608 211.462 9.79 211.028 10.154C210.612 10.518 210.404 11.0467 210.404 11.74C210.404 12.2253 210.56 12.6327 210.872 12.962C211.202 13.274 211.6 13.534 212.068 13.742C212.554 13.9327 213.23 14.158 214.096 14.418C215.275 14.7647 216.237 15.1113 216.982 15.458C217.728 15.8047 218.369 16.3247 218.906 17.018C219.444 17.7113 219.712 18.6213 219.712 19.748C219.712 20.7187 219.461 21.62 218.958 22.452C218.456 23.284 217.719 23.9513 216.748 24.454C215.778 24.9393 214.625 25.182 213.29 25.182ZM221.932 17.798C221.932 16.3073 222.236 15.0073 222.842 13.898C223.449 12.7713 224.29 11.9047 225.364 11.298C226.439 10.674 227.67 10.362 229.056 10.362C230.842 10.362 232.315 10.8127 233.476 11.714C234.655 12.598 235.444 13.846 235.842 15.458H231.916C231.708 14.834 231.353 14.3487 230.85 14.002C230.365 13.638 229.758 13.456 229.03 13.456C227.99 13.456 227.167 13.8373 226.56 14.6C225.954 15.3453 225.65 16.4113 225.65 17.798C225.65 19.1673 225.954 20.2333 226.56 20.996C227.167 21.7413 227.99 22.114 229.03 22.114C230.504 22.114 231.466 21.4553 231.916 20.138H235.842C235.444 21.698 234.655 22.9373 233.476 23.856C232.298 24.7747 230.824 25.234 229.056 25.234C227.67 25.234 226.439 24.9307 225.364 24.324C224.29 23.7 223.449 22.8333 222.842 21.724C222.236 20.5973 221.932 19.2887 221.932 17.798ZM240.355 8.88C239.714 8.88 239.176 8.68067 238.743 8.282C238.327 7.866 238.119 7.35467 238.119 6.748C238.119 6.14133 238.327 5.63867 238.743 5.24C239.176 4.824 239.714 4.616 240.355 4.616C240.996 4.616 241.525 4.824 241.941 5.24C242.374 5.63867 242.591 6.14133 242.591 6.748C242.591 7.35467 242.374 7.866 241.941 8.282C241.525 8.68067 240.996 8.88 240.355 8.88ZM242.149 10.596V25H238.509V10.596H242.149ZM259.135 17.486C259.135 18.006 259.101 18.474 259.031 18.89H248.501C248.588 19.93 248.952 20.7447 249.593 21.334C250.235 21.9233 251.023 22.218 251.959 22.218C253.311 22.218 254.273 21.6373 254.845 20.476H258.771C258.355 21.8627 257.558 23.0067 256.379 23.908C255.201 24.792 253.753 25.234 252.037 25.234C250.651 25.234 249.403 24.9307 248.293 24.324C247.201 23.7 246.343 22.8247 245.719 21.698C245.113 20.5713 244.809 19.2713 244.809 17.798C244.809 16.3073 245.113 14.9987 245.719 13.872C246.326 12.7453 247.175 11.8787 248.267 11.272C249.359 10.6653 250.616 10.362 252.037 10.362C253.407 10.362 254.629 10.6567 255.703 11.246C256.795 11.8353 257.636 12.676 258.225 13.768C258.832 14.8427 259.135 16.082 259.135 17.486ZM255.365 16.446C255.348 15.51 255.01 14.7647 254.351 14.21C253.693 13.638 252.887 13.352 251.933 13.352C251.032 13.352 250.269 13.6293 249.645 14.184C249.039 14.7213 248.666 15.4753 248.527 16.446H255.365ZM269.774 10.388C271.49 10.388 272.877 10.934 273.934 12.026C274.991 13.1007 275.52 14.6087 275.52 16.55V25H271.88V17.044C271.88 15.9 271.594 15.0247 271.022 14.418C270.45 13.794 269.67 13.482 268.682 13.482C267.677 13.482 266.879 13.794 266.29 14.418C265.718 15.0247 265.432 15.9 265.432 17.044V25H261.792V10.596H265.432V12.39C265.917 11.766 266.533 11.2807 267.278 10.934C268.041 10.57 268.873 10.388 269.774 10.388ZM278.045 17.798C278.045 16.3073 278.349 15.0073 278.956 13.898C279.562 12.7713 280.403 11.9047 281.478 11.298C282.552 10.674 283.783 10.362 285.17 10.362C286.955 10.362 288.428 10.8127 289.59 11.714C290.768 12.598 291.557 13.846 291.956 15.458H288.03C287.822 14.834 287.466 14.3487 286.964 14.002C286.478 13.638 285.872 13.456 285.144 13.456C284.104 13.456 283.28 13.8373 282.674 14.6C282.067 15.3453 281.764 16.4113 281.764 17.798C281.764 19.1673 282.067 20.2333 282.674 20.996C283.28 21.7413 284.104 22.114 285.144 22.114C286.617 22.114 287.579 21.4553 288.03 20.138H291.956C291.557 21.698 290.768 22.9373 289.59 23.856C288.411 24.7747 286.938 25.234 285.17 25.234C283.783 25.234 282.552 24.9307 281.478 24.324C280.403 23.7 279.562 22.8333 278.956 21.724C278.349 20.5973 278.045 19.2887 278.045 17.798ZM308.012 17.486C308.012 18.006 307.977 18.474 307.908 18.89H297.378C297.465 19.93 297.829 20.7447 298.47 21.334C299.111 21.9233 299.9 22.218 300.836 22.218C302.188 22.218 303.15 21.6373 303.722 20.476H307.648C307.232 21.8627 306.435 23.0067 305.256 23.908C304.077 24.792 302.63 25.234 300.914 25.234C299.527 25.234 298.279 24.9307 297.17 24.324C296.078 23.7 295.22 22.8247 294.596 21.698C293.989 20.5713 293.686 19.2713 293.686 17.798C293.686 16.3073 293.989 14.9987 294.596 13.872C295.203 12.7453 296.052 11.8787 297.144 11.272C298.236 10.6653 299.493 10.362 300.914 10.362C302.283 10.362 303.505 10.6567 304.58 11.246C305.672 11.8353 306.513 12.676 307.102 13.768C307.709 14.8427 308.012 16.082 308.012 17.486ZM304.242 16.446C304.225 15.51 303.887 14.7647 303.228 14.21C302.569 13.638 301.763 13.352 300.81 13.352C299.909 13.352 299.146 13.6293 298.522 14.184C297.915 14.7213 297.543 15.4753 297.404 16.446H304.242ZM322.792 21.568L317.124 15.744L322.792 9.92H327.368L321.7 15.744L327.368 21.568H322.792ZM341.798 0.377999L334.778 29.706H331.216L338.236 0.377999H341.798ZM345.212 9.92H349.814L355.482 15.744L349.814 21.568H345.212L350.906 15.744L345.212 9.92Z" fill="#62FF48"/>
</svg>
