<?xml version="1.0" encoding="UTF-8"?>
<!DOCTYPE svg PUBLIC "-//W3C//DTD SVG 1.1//EN" "http://www.w3.org/Graphics/SVG/1.1/DTD/svg11.dtd">
<svg xmlns="http://www.w3.org/2000/svg" version="1.1" width="700px" height="300px" style="shape-rendering:geometricPrecision; text-rendering:geometricPrecision; image-rendering:optimizeQuality; fill-rule:evenodd; clip-rule:evenodd" xmlns:xlink="http://www.w3.org/1999/xlink">
<g><path style="opacity:1" fill="#000000" d="M 325.5,40.5 C 326.117,40.6107 326.617,40.944 327,41.5C 327.167,77.5 327.333,113.5 327.5,149.5C 327.664,185.976 327.164,222.309 326,258.5C 324.836,222.309 324.336,185.976 324.5,149.5C 324.503,113.096 324.836,76.7628 325.5,40.5 Z"/></g>
<g><path style="opacity:0.92" fill="#000000" d="M 125.5,62.5 C 160.168,62.3333 194.835,62.5 229.5,63C 230.164,81.428 230.497,99.928 230.5,118.5C 230.497,137.072 230.164,155.572 229.5,174C 194.502,174.5 159.502,174.667 124.5,174.5C 124.666,170.486 124.499,166.486 124,162.5C 93.9777,156.144 73.4777,138.644 62.5,110C 64.4474,107.049 66.7807,104.382 69.5,102C 77.3245,95.9181 85.6579,90.5848 94.5,86C 103.792,81.7914 113.459,78.7914 123.5,77C 124.192,72.1689 124.859,67.3356 125.5,62.5 Z M 126.5,78.5 C 152.493,78.9973 173.493,89.3306 189.5,109.5C 176.642,125.087 160.642,135.92 141.5,142C 136.167,142.667 130.833,142.667 125.5,142C 125.747,140.187 126.08,138.353 126.5,136.5C 137.681,138.089 147.681,135.256 156.5,128C 163.43,122.907 169.096,116.741 173.5,109.5C 161.724,93.3355 145.724,85.3355 125.5,85.5C 125.298,83.0504 125.631,80.717 126.5,78.5 Z M 117.5,87.5 C 119.833,87.5 122.167,87.5 124.5,87.5C 124.813,90.2469 124.48,92.9135 123.5,95.5C 110.803,97.5132 100.136,103.18 91.5,112.5C 97.0783,128.749 108.078,139.082 124.5,143.5C 124.5,146.167 124.5,148.833 124.5,151.5C 109.869,149.1 98.3694,141.767 90,129.5C 86.5637,123.627 83.397,117.627 80.5,111.5C 90.0857,99.2106 102.419,91.2106 117.5,87.5 Z M 125.5,96.5 C 138.507,95.3842 149.174,99.7175 157.5,109.5C 153.427,113.284 149.26,116.951 145,120.5C 142.217,116.049 139.05,111.883 135.5,108C 132.562,105.743 129.229,104.576 125.5,104.5C 125.5,101.833 125.5,99.1667 125.5,96.5 Z M 119.5,105.5 C 121.167,105.5 122.833,105.5 124.5,105.5C 124.666,115.172 124.5,124.839 124,134.5C 115.661,129.826 109.828,122.993 106.5,114C 110.249,110.135 114.582,107.302 119.5,105.5 Z M 196.5,123.5 C 203.479,125.49 209.812,128.824 215.5,133.5C 208.491,139.009 200.825,143.509 192.5,147C 171.08,156.106 148.747,160.606 125.5,160.5C 125.5,158.167 125.5,155.833 125.5,153.5C 153.572,153.623 177.239,143.623 196.5,123.5 Z"/></g>
<g><path style="opacity:0.842" fill="#000000" d="M 381.5,62.5 C 409.011,58.5282 419.178,70.1949 412,97.5C 410.5,103 407,106.5 401.5,108C 394.586,108.811 387.752,108.645 381,107.5C 380.184,92.4255 380.351,77.4255 381.5,62.5 Z M 386.5,68.5 C 401.282,64.9608 407.949,70.6275 406.5,85.5C 407.927,100.396 401.26,106.063 386.5,102.5C 386.5,91.1667 386.5,79.8333 386.5,68.5 Z"/></g>
<g><path style="opacity:0.781" fill="#000000" d="M 422.5,62.5 C 432.083,62.1816 441.583,62.5149 451,63.5C 451.72,65.1124 451.554,66.6124 450.5,68C 443.5,68.3333 436.5,68.6667 429.5,69C 428.167,73.3333 428.167,77.6667 429.5,82C 435.5,82.3333 441.5,82.6667 447.5,83C 448.86,84.9376 448.527,86.6043 446.5,88C 440.833,88.3333 435.167,88.6667 429.5,89C 428.371,93.0785 428.204,97.2452 429,101.5C 436.087,102.315 443.253,102.815 450.5,103C 451.833,104.667 451.833,106.333 450.5,108C 440.922,108.818 431.422,108.651 422,107.5C 421.184,92.4255 421.351,77.4255 422.5,62.5 Z"/></g>
<g><path style="opacity:0.826" fill="#000000" d="M 460.5,62.5 C 469.751,62.1822 478.917,62.5155 488,63.5C 488.72,65.1124 488.554,66.6124 487.5,68C 480.5,68.3333 473.5,68.6667 466.5,69C 465.167,73.3333 465.167,77.6667 466.5,82C 472.5,82.3333 478.5,82.6667 484.5,83C 485.833,84.6667 485.833,86.3333 484.5,88C 478.5,88.3333 472.5,88.6667 466.5,89C 465.371,93.0785 465.204,97.2452 466,101.5C 473.087,102.315 480.253,102.815 487.5,103C 488.833,104.667 488.833,106.333 487.5,108C 478.255,108.817 469.089,108.65 460,107.5C 459.184,92.4255 459.351,77.4255 460.5,62.5 Z"/></g>
<g><path style="opacity:0.815" fill="#000000" d="M 497.5,62.5 C 504.841,62.3337 512.174,62.5003 519.5,63C 527.305,66.7808 530.138,72.9475 528,81.5C 525.934,86.6261 522.1,89.4594 516.5,90C 512.247,90.1998 508.08,90.6998 504,91.5C 503.667,96.8333 503.333,102.167 503,107.5C 501,108.833 499,108.833 497,107.5C 496.184,92.4255 496.351,77.4255 497.5,62.5 Z M 503.5,68.5 C 508.179,68.3342 512.845,68.5008 517.5,69C 520.901,70.3203 522.235,72.8203 521.5,76.5C 522.235,80.1797 520.901,82.6797 517.5,84C 512.845,84.4992 508.179,84.6658 503.5,84.5C 503.5,79.1667 503.5,73.8333 503.5,68.5 Z"/></g>
<g><path style="opacity:0.878" fill="#000000" d="M 381.5,125.5 C 383.144,125.286 384.644,125.62 386,126.5C 386.333,139.5 386.667,152.5 387,165.5C 394.087,166.315 401.253,166.815 408.5,167C 409.833,168.333 409.833,169.667 408.5,171C 406.256,171.906 403.923,172.406 401.5,172.5C 394.599,171.977 387.765,171.31 381,170.5C 380.184,155.426 380.351,140.426 381.5,125.5 Z"/></g>
<g><path style="opacity:0.815" fill="#000000" d="M 417.5,125.5 C 427.083,125.182 436.583,125.515 446,126.5C 446.743,128.441 446.576,130.274 445.5,132C 438.5,132.333 431.5,132.667 424.5,133C 423.167,137.333 423.167,141.667 424.5,146C 430.167,146.333 435.833,146.667 441.5,147C 442.833,148.333 442.833,149.667 441.5,151C 435.833,151.333 430.167,151.667 424.5,152C 423.368,156.413 423.201,160.913 424,165.5C 431.087,166.315 438.253,166.815 445.5,167C 446.833,168.333 446.833,169.667 445.5,171C 443.782,171.346 442.115,171.846 440.5,172.5C 436.963,171.751 433.296,171.751 429.5,172.5C 425.3,171.863 421.134,171.196 417,170.5C 416.184,155.426 416.351,140.426 417.5,125.5 Z"/></g>
<g><path style="opacity:0.828" fill="#000000" d="M 468.5,125.5 C 471.238,124.965 473.072,125.965 474,128.5C 478.975,142.427 484.142,156.261 489.5,170C 487.728,171.487 485.728,171.82 483.5,171C 481.895,168.457 480.562,165.791 479.5,163C 473.5,162.333 467.5,162.333 461.5,163C 460.544,165.877 459.211,168.544 457.5,171C 455.272,171.82 453.272,171.487 451.5,170C 457.072,155.116 462.739,140.282 468.5,125.5 Z M 469.5,137.5 C 470.497,137.47 471.164,137.97 471.5,139C 473.205,144.615 475.205,150.115 477.5,155.5C 472.869,156.662 468.202,156.828 463.5,156C 465.997,150.008 467.997,143.842 469.5,137.5 Z"/></g>
<g><path style="opacity:0.825" fill="#000000" d="M 497.5,125.5 C 506.016,124.885 514.349,125.718 522.5,128C 531.195,137.445 530.195,145.778 519.5,153C 522.933,159.031 525.933,165.198 528.5,171.5C 526.473,171.662 524.473,171.495 522.5,171C 518.569,165.134 514.903,159.134 511.5,153C 508.901,152.231 506.401,152.398 504,153.5C 503.667,159.167 503.333,164.833 503,170.5C 501,171.833 499,171.833 497,170.5C 496.184,155.426 496.351,140.426 497.5,125.5 Z M 503.5,132.5 C 508.511,132.334 513.511,132.501 518.5,133C 521.394,135.909 522.227,139.409 521,143.5C 520.097,144.701 518.931,145.535 517.5,146C 512.845,146.499 508.179,146.666 503.5,146.5C 503.5,141.833 503.5,137.167 503.5,132.5 Z"/></g>
<g><path style="opacity:0.879" fill="#000000" d="M 538.5,125.5 C 541.325,125.081 543.491,126.081 545,128.5C 551.337,138.326 557.837,147.993 564.5,157.5C 565.332,147.183 565.832,136.849 566,126.5C 567.667,125.167 569.333,125.167 571,126.5C 571.823,141.408 571.657,156.241 570.5,171C 567.975,171.896 565.808,171.396 564,169.5C 557.696,159.697 551.196,150.03 544.5,140.5C 543.668,150.483 543.168,160.483 543,170.5C 541.333,171.833 539.667,171.833 538,170.5C 537.184,155.426 537.351,140.426 538.5,125.5 Z"/></g>
<g><path style="opacity:0.9" fill="#000000" d="M 583.5,125.5 C 585.144,125.286 586.644,125.62 588,126.5C 588.667,141.167 588.667,155.833 588,170.5C 586.333,171.833 584.667,171.833 583,170.5C 582.184,155.426 582.351,140.426 583.5,125.5 Z"/></g>
<g><path style="opacity:0.84" fill="#000000" d="M 599.5,125.5 C 601.467,125.261 603.301,125.594 605,126.5C 612.363,137.03 619.529,147.697 626.5,158.5C 627.332,147.849 627.832,137.182 628,126.5C 629.667,125.167 631.333,125.167 633,126.5C 633.823,141.408 633.657,156.241 632.5,171C 629.364,172.041 626.864,171.207 625,168.5C 619.03,159.031 612.863,149.698 606.5,140.5C 605.668,150.483 605.168,160.483 605,170.5C 603,171.833 601,171.833 599,170.5C 598.184,155.426 598.351,140.426 599.5,125.5 Z"/></g>
<g><path style="opacity:0.835" fill="#000000" d="M 654.5,125.5 C 664.894,124.523 671.894,128.857 675.5,138.5C 673.956,140.446 671.956,140.946 669.5,140C 666.496,132.44 661.162,130.107 653.5,133C 651.951,134.214 650.785,135.714 650,137.5C 649.333,145.167 649.333,152.833 650,160.5C 652.919,166.025 657.419,167.858 663.5,166C 672.773,157.447 671.439,152.781 659.5,152C 658.167,150.667 658.167,149.333 659.5,148C 664.751,147.196 669.918,147.363 675,148.5C 677.644,164.846 670.811,172.68 654.5,172C 648.667,170.167 644.833,166.333 643,160.5C 642.333,152.833 642.333,145.167 643,137.5C 645.019,131.65 648.852,127.65 654.5,125.5 Z"/></g>
<g><path style="opacity:0.871" fill="#000000" d="M 381.5,189.5 C 383.144,189.286 384.644,189.62 386,190.5C 386.667,205.5 386.667,220.5 386,235.5C 384.333,236.833 382.667,236.833 381,235.5C 380.184,220.092 380.351,204.759 381.5,189.5 Z"/></g>
<g><path style="opacity:0.841" fill="#000000" d="M 397.5,189.5 C 400.652,188.959 403.152,189.959 405,192.5C 411.304,202.303 417.804,211.97 424.5,221.5C 425.332,211.183 425.832,200.849 426,190.5C 427.667,189.167 429.333,189.167 431,190.5C 431.824,205.741 431.657,220.908 430.5,236C 428.433,236.536 426.599,236.036 425,234.5C 418.401,224.289 411.568,214.289 404.5,204.5C 403.668,214.817 403.168,225.151 403,235.5C 400.733,236.935 398.733,236.602 397,234.5C 396.184,219.426 396.351,204.426 397.5,189.5 Z"/></g>
<g><path style="opacity:0.831" fill="#000000" d="M 450.5,189.5 C 454.182,189.335 457.848,189.501 461.5,190C 464.657,190.742 467.323,192.242 469.5,194.5C 467.48,199.025 464.814,199.525 461.5,196C 450.725,192.795 446.391,196.461 448.5,207C 453.273,209.076 458.273,210.409 463.5,211C 471.504,214.954 473.671,221.12 470,229.5C 462.679,236.99 454.179,238.49 444.5,234C 438.509,231.583 438.175,228.749 443.5,225.5C 449.607,230.796 456.274,231.629 463.5,228C 466.017,224.629 466.017,221.295 463.5,218C 457.611,216.059 451.611,214.392 445.5,213C 438.842,206.041 438.842,199.041 445.5,192C 447.315,191.243 448.981,190.41 450.5,189.5 Z"/></g>
<g><path style="opacity:0.867" fill="#000000" d="M 477.5,189.5 C 487.749,189.181 497.916,189.514 508,190.5C 508.72,192.112 508.554,193.612 507.5,195C 503.579,195.203 499.745,195.703 496,196.5C 495.189,207.547 495.356,218.547 496.5,229.5C 495.894,231.709 495.227,233.876 494.5,236C 492.888,236.72 491.388,236.554 490,235.5C 489.667,222.5 489.333,209.5 489,196.5C 485.255,195.703 481.421,195.203 477.5,195C 476.248,193.172 476.248,191.339 477.5,189.5 Z"/></g>
<g><path style="opacity:0.768" fill="#000000" d="M 516.5,189.5 C 518.467,189.261 520.301,189.594 522,190.5C 522.667,205.5 522.667,220.5 522,235.5C 519.733,236.935 517.733,236.602 516,234.5C 515.184,219.426 515.351,204.426 516.5,189.5 Z"/></g>
<g><path style="opacity:0.855" fill="#000000" d="M 530.5,189.5 C 540.749,189.181 550.916,189.514 561,190.5C 561.72,192.112 561.554,193.612 560.5,195C 556.579,195.203 552.745,195.703 549,196.5C 548.824,209.742 548.324,222.908 547.5,236C 545.888,236.72 544.388,236.554 543,235.5C 542.667,222.5 542.333,209.5 542,196.5C 538.255,195.703 534.421,195.203 530.5,195C 529.248,193.172 529.248,191.339 530.5,189.5 Z"/></g>
<g><path style="opacity:0.87" fill="#000000" d="M 569.5,189.5 C 571.144,189.286 572.644,189.62 574,190.5C 574.064,202.238 574.73,213.904 576,225.5C 582.488,232.395 588.488,232.062 594,224.5C 595.243,213.224 595.91,201.891 596,190.5C 597.667,189.167 599.333,189.167 601,190.5C 601.891,202.549 601.557,214.549 600,226.5C 595.835,234.332 589.335,237.499 580.5,236C 574.196,234.032 570.363,229.866 569,223.5C 568.19,212.091 568.357,200.757 569.5,189.5 Z"/></g>
<g><path style="opacity:0.87" fill="#000000" d="M 609.5,189.5 C 619.749,189.181 629.916,189.514 640,190.5C 640.72,192.112 640.554,193.612 639.5,195C 635.579,195.203 631.745,195.703 628,196.5C 627.824,209.742 627.324,222.908 626.5,236C 624.888,236.72 623.388,236.554 622,235.5C 621.667,222.5 621.333,209.5 621,196.5C 617.255,195.703 613.421,195.203 609.5,195C 608.248,193.172 608.248,191.339 609.5,189.5 Z"/></g>
<g><path style="opacity:0.803" fill="#000000" d="M 648.5,189.5 C 657.751,189.182 666.917,189.515 676,190.5C 676.72,192.112 676.554,193.612 675.5,195C 668.833,195.333 662.167,195.667 655.5,196C 654.167,200.333 654.167,204.667 655.5,209C 661.167,209.333 666.833,209.667 672.5,210C 673.833,211.667 673.833,213.333 672.5,215C 666.833,215.333 661.167,215.667 655.5,216C 654.371,220.079 654.204,224.245 655,228.5C 661.753,229.314 668.586,229.814 675.5,230C 677.922,232.112 677.922,234.112 675.5,236C 666.255,236.817 657.089,236.65 648,235.5C 647.184,220.092 647.351,204.759 648.5,189.5 Z"/></g>
<g><path style="opacity:0.894" fill="#000000" d="M 48.5,192.5 C 57.5062,192.334 66.5062,192.5 75.5,193C 85.6605,194.627 90.9938,200.627 91.5,211C 91.1436,218.294 90.9769,225.794 91,233.5C 90.6258,234.416 90.1258,235.25 89.5,236C 85.577,236.793 81.7436,236.626 78,235.5C 77.918,226.092 77.2514,216.759 76,207.5C 73.2897,205.208 70.123,204.208 66.5,204.5C 64.5711,204.54 62.7378,204.873 61,205.5C 60.6667,215.5 60.3333,225.5 60,235.5C 56,236.833 52,236.833 48,235.5C 47.1851,221.092 47.3517,206.759 48.5,192.5 Z"/></g>
<g><path style="opacity:0.903" fill="#000000" d="M 92.5,192.5 C 96.7675,192.203 100.934,192.536 105,193.5C 108.146,202.752 110.979,212.086 113.5,221.5C 117.552,212.512 120.718,203.179 123,193.5C 127.333,192.167 131.667,192.167 136,193.5C 132.047,207.802 127.547,221.969 122.5,236C 116.833,236.667 111.167,236.667 105.5,236C 100.621,223.367 96.1213,210.534 92,197.5C 91.3603,195.735 91.5269,194.068 92.5,192.5 Z"/></g>
<g><path style="opacity:0.873" fill="#000000" d="M 140.5,192.5 C 144.767,192.203 148.934,192.536 153,193.5C 153.823,207.742 153.656,221.908 152.5,236C 148.245,236.796 144.079,236.629 140,235.5C 139.185,221.092 139.352,206.759 140.5,192.5 Z"/></g>
<g><path style="opacity:0.902" fill="#000000" d="M 159.5,192.5 C 168.891,192.147 178.225,192.647 187.5,194C 194.517,196.352 198.684,201.185 200,208.5C 200.961,215.336 200.295,222.003 198,228.5C 194.835,232.666 190.668,235.166 185.5,236C 176.588,236.816 167.755,236.65 159,235.5C 158.185,221.092 158.352,206.759 159.5,192.5 Z M 172.5,203.5 C 184.436,202.365 189.27,207.698 187,219.5C 183.634,224.686 178.801,226.686 172.5,225.5C 172.5,218.167 172.5,210.833 172.5,203.5 Z"/></g>
<g><path style="opacity:0.895" fill="#000000" d="M 205.5,192.5 C 209.437,192.207 213.27,192.54 217,193.5C 217.823,207.742 217.656,221.908 216.5,236C 212.577,236.793 208.744,236.626 205,235.5C 204.185,221.092 204.352,206.759 205.5,192.5 Z"/></g>
<g><path style="opacity:0.887" fill="#000000" d="M 238.5,192.5 C 243.511,192.334 248.511,192.501 253.5,193C 259.572,205.536 265.072,218.369 270,231.5C 270.333,231.833 270.667,232.167 271,232.5C 270.812,225.034 274.312,222.534 281.5,225C 284.723,228.112 285.223,231.612 283,235.5C 279.201,238.133 275.367,238.133 271.5,235.5C 267.223,236.606 262.89,236.772 258.5,236C 256.983,233.796 255.65,231.462 254.5,229C 248.833,228.333 243.167,228.333 237.5,229C 235.983,231.204 234.65,233.538 233.5,236C 229.833,236.667 226.167,236.667 222.5,236C 221.524,233.853 221.691,231.686 223,229.5C 228.199,217.111 233.366,204.777 238.5,192.5 Z M 245.5,204.5 C 247.449,209.077 249.449,213.744 251.5,218.5C 247.833,219.833 244.167,219.833 240.5,218.5C 242.175,213.805 243.842,209.138 245.5,204.5 Z M 275.5,227.5 C 275.5,229.833 275.5,232.167 275.5,234.5C 271.5,232.167 271.5,229.833 275.5,227.5 Z M 279.5,227.5 C 283.5,229.833 283.5,232.167 279.5,234.5C 280.438,232.09 280.438,229.756 279.5,227.5 Z"/></g>
<g><path style="opacity:0.659" fill="#000000" d="M 275.5,227.5 C 276.833,227.5 278.167,227.5 279.5,227.5C 280.438,229.756 280.438,232.09 279.5,234.5C 278.167,234.5 276.833,234.5 275.5,234.5C 275.5,232.167 275.5,229.833 275.5,227.5 Z"/></g>
</svg>
