<?xml version="1.0" encoding="UTF-8"?>
<!DOCTYPE svg PUBLIC "-//W3C//DTD SVG 1.1//EN" "http://www.w3.org/Graphics/SVG/1.1/DTD/svg11.dtd">
<svg xmlns="http://www.w3.org/2000/svg" version="1.1" width="700px" height="300px" style="shape-rendering:geometricPrecision; text-rendering:geometricPrecision; image-rendering:optimizeQuality; fill-rule:evenodd; clip-rule:evenodd" xmlns:xlink="http://www.w3.org/1999/xlink">
<g><path style="opacity:0.976" fill="#fefffe" d="M 48.5,86.5 C 88.6646,85.3354 128.998,85.1687 169.5,86C 198.162,95.0015 211.329,114.502 209,144.5C 204.556,164.944 192.39,178.444 172.5,185C 184.833,200 197.167,215 209.5,230C 194.5,230.667 179.5,230.667 164.5,230C 143.713,204.258 123.047,178.425 102.5,152.5C 123.042,152.977 143.709,152.477 164.5,151C 173.03,146.774 176.197,139.941 174,130.5C 171.668,124.836 167.501,121.336 161.5,120C 132.833,119.667 104.167,119.333 75.5,119C 66.6356,107.977 57.6356,97.1434 48.5,86.5 Z"/></g>
<g><path style="opacity:0.971" fill="#fefffe" d="M 280.5,85.5 C 293.08,85.1779 305.58,85.5112 318,86.5C 335.779,134.506 353.945,182.339 372.5,230C 359.838,230.5 347.171,230.667 334.5,230.5C 323.168,198.675 311.335,167.009 299,135.5C 287.265,166.872 275.432,198.206 263.5,229.5C 250.846,230.666 238.18,230.833 225.5,230C 244.131,181.939 262.465,133.772 280.5,85.5 Z"/></g>
<g><path style="opacity:0.971" fill="#fefffe" d="M 362.5,85.5 C 374.851,85.1676 387.185,85.501 399.5,86.5C 411.578,117.906 423.745,149.24 436,180.5C 447.556,149.057 459.389,117.723 471.5,86.5C 483.833,85.1667 496.167,85.1667 508.5,86.5C 490.5,134.167 472.5,181.833 454.5,229.5C 441.833,230.833 429.167,230.833 416.5,229.5C 398.297,181.554 380.297,133.554 362.5,85.5 Z"/></g>
<g><path style="opacity:0.978" fill="#fefffe" d="M 529.5,85.5 C 541.518,85.1677 553.518,85.501 565.5,86.5C 590.479,116.646 615.645,146.646 641,176.5C 641.5,146.168 641.667,115.835 641.5,85.5C 652.833,85.5 664.167,85.5 675.5,85.5C 675.5,133.833 675.5,182.167 675.5,230.5C 663.829,230.667 652.162,230.5 640.5,230C 614.957,200.126 589.79,169.959 565,139.5C 564.5,169.832 564.333,200.165 564.5,230.5C 552.833,230.5 541.167,230.5 529.5,230.5C 529.5,182.167 529.5,133.833 529.5,85.5 Z"/></g>
<g><path style="opacity:0.955" fill="#fefffe" d="M 79.5,185.5 C 96.9339,183.544 106.934,191.21 109.5,208.5C 106.419,226.045 96.0859,233.212 78.5,230C 63.7813,222.735 59.6146,211.568 66,196.5C 69.3358,191.269 73.8358,187.602 79.5,185.5 Z"/></g>
</svg>
