<svg viewBox="0 0 6.3500002 6.3500002" id="svg1976" version="1.1" xmlns="http://www.w3.org/2000/svg" xmlns:cc="http://creativecommons.org/ns#" xmlns:dc="http://purl.org/dc/elements/1.1/" xmlns:inkscape="http://www.inkscape.org/namespaces/inkscape" xmlns:rdf="http://www.w3.org/1999/02/22-rdf-syntax-ns#" xmlns:sodipodi="http://sodipodi.sourceforge.net/DTD/sodipodi-0.dtd" xmlns:svg="http://www.w3.org/2000/svg" fill="#000000"><g id="SVGRepo_bgCarrier" stroke-width="0"></g><g id="SVGRepo_tracerCarrier" stroke-linecap="round" stroke-linejoin="round"></g><g id="SVGRepo_iconCarrier"> <defs id="defs1970"></defs> <g id="layer1" style="display:inline"> <path d="m 2.0062005,0.13306262 c -0.655029,0 -1.1895905,0.5345615 -1.1895905,1.18959148 0,0.64681 0.2600536,1.3675495 0.6175322,1.9549195 0.1787419,0.2936899 0.3818334,0.5542349 0.6051312,0.749825 0.2233004,0.1956001 0.471461,0.3379639 0.7539593,0.3379639 H 3.535307 c 0.2969207,0 0.5437558,-0.1660954 0.7658444,-0.3808553 C 4.5232321,3.7697473 4.7247864,3.4885823 4.9026657,3.1819722 5.2580858,2.5693422 5.5205604,1.8706771 5.5119297,1.320587 5.5108714,0.66644702 4.9767094,0.13306262 4.3223392,0.13306262 Z M 3.18339,0.93249702 A 0.26412889,0.265092 1.849479 0 1 3.3921647,1.0420511 L 3.6701836,1.417222 4.1388877,1.5944722 A 0.26412889,0.265092 1.849479 0 1 4.2608448,1.9954813 L 3.9890277,2.3794372 3.9652681,2.8791481 A 0.26412889,0.265092 1.849479 0 1 3.6200689,3.1194438 L 3.1766854,2.9783669 2.6935113,3.1116923 A 0.26412889,0.265092 1.849479 0 1 2.3591652,2.8589946 L 2.3555404,2.3892557 2.0821703,1.969643 A 0.26412889,0.265092 1.849479 0 1 2.2191133,1.5738016 L 2.6599145,1.4229064 2.9746231,1.0322326 a 0.26412889,0.265092 1.849479 0 1 0.1467618,-0.093018 0.26412889,0.265092 1.849479 0 1 0.06201,-0.00672 z" id="path698" style="color:#ffffff;font-style:normal;font-variant:normal;font-weight:normal;font-stretch:normal;font-size:medium;line-height:normal;font-family:sans-serif;font-variant-ligatures:normal;font-variant-position:normal;font-variant-caps:normal;font-variant-numeric:normal;font-variant-alternates:normal;font-variant-east-asian:normal;font-feature-settings:normal;font-variation-settings:normal;text-indent:0;text-align:start;text-decoration:none;text-decoration-line:none;text-decoration-style:solid;text-decoration-color:#ffffff;letter-spacing:normal;word-spacing:normal;text-transform:none;writing-mode:lr-tb;direction:ltr;text-orientation:mixed;dominant-baseline:auto;baseline-shift:baseline;text-anchor:start;white-space:normal;shape-padding:0;shape-margin:0;inline-size:0;clip-rule:nonzero;display:inline;overflow:visible;visibility:visible;isolation:auto;mix-blend-mode:normal;color-interpolation:sRGB;color-interpolation-filters:linearRGB;solid-color:#ffffff;solid-opacity:1;vector-effect:none;fill:#ffffff;fill-opacity:1;fill-rule:nonzero;stroke:none;stroke-width:0.529167;stroke-linecap:round;stroke-linejoin:round;stroke-miterlimit:4;stroke-dasharray:none;stroke-dashoffset:0;stroke-opacity:1;paint-order:stroke fill markers;color-rendering:auto;image-rendering:auto;shape-rendering:auto;text-rendering:auto;enable-background:accumulate;stop-color:#ffffff"></path> <path d="m 1.9300199,4.6290474 c -0.33744,0 -0.61719,0.2817 -0.61719,0.61914 v 0.35156 c 0,0.33744 0.27975,0.61719 0.61719,0.61719 h 2.46875 c 0.33743,0 0.61718,-0.27975 0.61718,-0.61719 v -0.35156 c 0,-0.33744 -0.27975,-0.61914 -0.61718,-0.61914 z" id="rect700" style="color:#ffffff;font-style:normal;font-variant:normal;font-weight:normal;font-stretch:normal;font-size:medium;line-height:normal;font-family:sans-serif;font-variant-ligatures:normal;font-variant-position:normal;font-variant-caps:normal;font-variant-numeric:normal;font-variant-alternates:normal;font-variant-east-asian:normal;font-feature-settings:normal;font-variation-settings:normal;text-indent:0;text-align:start;text-decoration:none;text-decoration-line:none;text-decoration-style:solid;text-decoration-color:#ffffff;letter-spacing:normal;word-spacing:normal;text-transform:none;writing-mode:lr-tb;direction:ltr;text-orientation:mixed;dominant-baseline:auto;baseline-shift:baseline;text-anchor:start;white-space:normal;shape-padding:0;shape-margin:0;inline-size:0;clip-rule:nonzero;display:inline;overflow:visible;visibility:visible;isolation:auto;mix-blend-mode:normal;color-interpolation:sRGB;color-interpolation-filters:linearRGB;solid-color:#ffffff;solid-opacity:1;vector-effect:none;fill:#ffffff;fill-opacity:1;fill-rule:nonzero;stroke:none;stroke-width:0.529167;stroke-linecap:round;stroke-linejoin:round;stroke-miterlimit:4;stroke-dasharray:none;stroke-dashoffset:0;stroke-opacity:1;paint-order:stroke fill markers;color-rendering:auto;image-rendering:auto;shape-rendering:auto;text-rendering:auto;enable-background:accumulate;stop-color:#ffffff"></path> <path d="M 0.2740077,0.92577912 A 0.26460996,0.26460996 0 0 0 0.0099403,1.1898457 c 0,0.67152 -0.031006,1.1590911 0.1896534,1.5585612 0.1103206,0.19973 0.2993496,0.3576738 0.5332994,0.4433838 0.1282436,0.046977 0.2711212,0.075923 0.4304666,0.093534 C 0.7981923,2.6501343 0.5380751,1.8953124 0.5380751,1.2125833 c 0,-0.098654 0.012515,-0.194166 0.033073,-0.28680418 z m 5.4833866,0 c 0.020399,0.092 0.032946,0.18679068 0.033073,0.28473708 C 5.8001245,1.8257351 5.5068127,2.6068281 5.1093715,3.2920429 5.2997947,3.2760277 5.4679666,3.2459638 5.6157999,3.1917907 5.8497603,3.1060908 6.0382548,2.9481369 6.1485834,2.7484069 6.3692353,2.3489368 6.3403031,1.8613657 6.3403031,1.1898457 A 0.26460996,0.26460996 0 0 0 6.0746879,0.92577912 Z" id="path702" style="color:#ffffff;font-style:normal;font-variant:normal;font-weight:normal;font-stretch:normal;font-size:medium;line-height:normal;font-family:sans-serif;font-variant-ligatures:normal;font-variant-position:normal;font-variant-caps:normal;font-variant-numeric:normal;font-variant-alternates:normal;font-variant-east-asian:normal;font-feature-settings:normal;font-variation-settings:normal;text-indent:0;text-align:start;text-decoration:none;text-decoration-line:none;text-decoration-style:solid;text-decoration-color:#ffffff;letter-spacing:normal;word-spacing:normal;text-transform:none;writing-mode:lr-tb;direction:ltr;text-orientation:mixed;dominant-baseline:auto;baseline-shift:baseline;text-anchor:start;white-space:normal;shape-padding:0;shape-margin:0;inline-size:0;clip-rule:nonzero;display:inline;overflow:visible;visibility:visible;isolation:auto;mix-blend-mode:normal;color-interpolation:sRGB;color-interpolation-filters:linearRGB;solid-color:#ffffff;solid-opacity:1;vector-effect:none;fill:#ffffff;fill-opacity:1;fill-rule:nonzero;stroke:none;stroke-width:0.529167;stroke-linecap:butt;stroke-linejoin:round;stroke-miterlimit:4;stroke-dasharray:none;stroke-dashoffset:0;stroke-opacity:1;color-rendering:auto;image-rendering:auto;shape-rendering:auto;text-rendering:auto;enable-background:accumulate;stop-color:#ffffff"></path> </g> </g></svg>